<svg width="71" height="86" viewBox="0 0 71 86" fill="none" xmlns="http://www.w3.org/2000/svg">
<path d="M13.3609 11.1047C12.9077 11.1047 12.4731 10.925 12.1527 10.6052C11.8323 10.2854 11.6523 9.85168 11.6523 9.39942V1.70526C11.6523 1.253 11.8323 0.819303 12.1527 0.499505C12.4731 0.179706 12.9077 0 13.3609 0C13.814 0 14.2486 0.179706 14.569 0.499505C14.8894 0.819303 15.0694 1.253 15.0694 1.70526V9.38576C15.0712 9.61085 15.0283 9.83409 14.9432 10.0426C14.8582 10.251 14.7327 10.4406 14.5738 10.6004C14.415 10.7602 14.226 10.887 14.0178 10.9735C13.8096 11.0601 13.5864 11.1047 13.3609 11.1047Z" fill="#0E1C4C"/>
<path d="M24.9792 15.02H17.2564C16.8033 15.02 16.3687 14.8403 16.0483 14.5204C15.7279 14.2006 15.5479 13.7669 15.5479 13.3147C15.5479 12.8624 15.7279 12.4286 16.0483 12.1088C16.3687 11.789 16.8033 11.6094 17.2564 11.6094H24.9792C25.4324 11.6094 25.867 11.789 26.1874 12.1088C26.5078 12.4286 26.6878 12.8624 26.6878 13.3147C26.6878 13.7669 26.5078 14.2006 26.1874 14.5204C25.867 14.8403 25.4324 15.02 24.9792 15.02Z" fill="#0E1C4C"/>
<path d="M13.3609 26.6281C12.9078 26.6281 12.4731 26.4484 12.1527 26.1286C11.8323 25.8088 11.6523 25.3751 11.6523 24.9229V17.2287C11.6523 16.7764 11.8323 16.3427 12.1527 16.0229C12.4731 15.7031 12.9078 15.5234 13.3609 15.5234C13.814 15.5234 14.2486 15.7031 14.569 16.0229C14.8895 16.3427 15.0694 16.7764 15.0694 17.2287V24.9229C15.0694 25.3751 14.8895 25.8088 14.569 26.1286C14.2486 26.4484 13.814 26.6281 13.3609 26.6281Z" fill="#0E1C4C"/>
<path d="M9.4177 15.02H1.70858C1.25543 15.02 0.820897 14.8403 0.500477 14.5204C0.180056 14.2006 0 13.7669 0 13.3147C0 12.8624 0.180056 12.4286 0.500477 12.1088C0.820897 11.789 1.25543 11.6094 1.70858 11.6094H9.4177C9.87084 11.6094 10.3055 11.789 10.6259 12.1088C10.9463 12.4286 11.1263 12.8624 11.1263 13.3147C11.1263 13.7669 10.9463 14.2006 10.6259 14.5204C10.3055 14.8403 9.87084 15.02 9.4177 15.02Z" fill="#0E1C4C"/>
<path d="M37.5 86C38.8807 86 40 84.8807 40 83.5C40 82.1193 38.8807 81 37.5 81C36.1193 81 35 82.1193 35 83.5C35 84.8807 36.1193 86 37.5 86Z" fill="#5262EE"/>
<path d="M63.7093 65.4186C67.4147 65.4186 70.4186 62.4147 70.4186 58.7093C70.4186 55.0039 67.4147 52 63.7093 52C60.0038 52 57 55.0039 57 58.7093C57 62.4147 60.0038 65.4186 63.7093 65.4186Z" fill="#32AD67"/>
</svg>
