<svg width="65" height="87" viewBox="0 0 65 87" fill="none" xmlns="http://www.w3.org/2000/svg">
<path d="M51.3609 28.1047C50.9077 28.1047 50.4731 27.925 50.1527 27.6052C49.8323 27.2854 49.6523 26.8517 49.6523 26.3994V18.7053C49.6523 18.253 49.8323 17.8193 50.1527 17.4995C50.4731 17.1797 50.9077 17 51.3609 17C51.814 17 52.2486 17.1797 52.569 17.4995C52.8894 17.8193 53.0694 18.253 53.0694 18.7053V26.3858C53.0712 26.6108 53.0283 26.8341 52.9432 27.0426C52.8582 27.251 52.7327 27.4406 52.5738 27.6004C52.415 27.7602 52.226 27.887 52.0178 27.9735C51.8096 28.0601 51.5864 28.1047 51.3609 28.1047Z" fill="#32AD67"/>
<path d="M62.9792 32.02H55.2564C54.8033 32.02 54.3687 31.8403 54.0483 31.5204C53.7279 31.2006 53.5479 30.7669 53.5479 30.3147C53.5479 29.8624 53.7279 29.4286 54.0483 29.1088C54.3687 28.789 54.8033 28.6094 55.2564 28.6094H62.9792C63.4324 28.6094 63.867 28.789 64.1874 29.1088C64.5078 29.4286 64.6878 29.8624 64.6878 30.3147C64.6878 30.7669 64.5078 31.2006 64.1874 31.5204C63.867 31.8403 63.4324 32.02 62.9792 32.02Z" fill="#32AD67"/>
<path d="M51.3609 43.6281C50.9078 43.6281 50.4731 43.4484 50.1527 43.1286C49.8323 42.8088 49.6523 42.3751 49.6523 41.9229V34.2287C49.6523 33.7764 49.8323 33.3427 50.1527 33.0229C50.4731 32.7031 50.9078 32.5234 51.3609 32.5234C51.814 32.5234 52.2486 32.7031 52.569 33.0229C52.8895 33.3427 53.0694 33.7764 53.0694 34.2287V41.9229C53.0694 42.3751 52.8895 42.8088 52.569 43.1286C52.2486 43.4484 51.814 43.6281 51.3609 43.6281Z" fill="#32AD67"/>
<path d="M47.4177 32.02H39.7086C39.2554 32.02 38.8209 31.8403 38.5005 31.5204C38.1801 31.2006 38 30.7669 38 30.3147C38 29.8624 38.1801 29.4286 38.5005 29.1088C38.8209 28.789 39.2554 28.6094 39.7086 28.6094H47.4177C47.8708 28.6094 48.3055 28.789 48.6259 29.1088C48.9463 29.4286 49.1263 29.8624 49.1263 30.3147C49.1263 30.7669 48.9463 31.2006 48.6259 31.5204C48.3055 31.8403 47.8708 32.02 47.4177 32.02Z" fill="#32AD67"/>
<path d="M19.5 5C20.8807 5 22 3.88072 22 2.50001C22 1.1193 20.8807 0 19.5 0C18.1193 0 17 1.1193 17 2.50001C17 3.88072 18.1193 5 19.5 5Z" fill="#0E1C4C"/>
<path d="M6.70927 86.4186C10.4147 86.4186 13.4186 83.4147 13.4186 79.7093C13.4186 76.0039 10.4147 73 6.70927 73C3.00383 73 0 76.0039 0 79.7093C0 83.4147 3.00383 86.4186 6.70927 86.4186Z" fill="#5262EE"/>
</svg>
