<?xml version="1.0" encoding="utf-8"?><svg viewBox="0 0 28 28" xmlns="http://www.w3.org/2000/svg" xmlns:xlink="http://www.w3.org/1999/xlink"><style>:root>svg{display:none}:root>svg:target{display:block}</style><svg fill="none" viewBox="0 0 24 24" id="arrow-back" xmlns="http://www.w3.org/2000/svg"><path d="M21 11H6.83l3.58-3.59L9 6l-6 6 6 6 1.41-1.41L6.83 13H21v-2z" fill="#9699AB"/></svg><svg fill="none" viewBox="0 0 9 15" id="arrow-blue" xmlns="http://www.w3.org/2000/svg"><path d="M5.818 7.5L.25 1.931 1.84.341 9 7.5 1.84 14.66.25 13.069 5.818 7.5z" fill="#5262EE"/></svg><svg fill="none" viewBox="0 0 14 14" id="arrow-bread" xmlns="http://www.w3.org/2000/svg"><path d="M4.923 11.045l3.437-4.05-3.437-4.051a1.175 1.175 0 010-1.472c.346-.407.904-.407 1.25 0l4.065 4.792a1.175 1.175 0 010 1.472l-4.066 4.792c-.345.407-.903.407-1.249 0-.336-.407-.345-1.075 0-1.483z" fill="#9699AB"/></svg><svg fill="none" viewBox="0 0 27 27" id="arrow-button" xmlns="http://www.w3.org/2000/svg"><path d="M14.819 13.5l-5.57-5.569 1.591-1.59L18 13.5l-7.16 7.16-1.59-1.591 5.569-5.569z" fill="#32AD67"/></svg><svg fill="none" viewBox="0 0 13 13" id="arrow-down" xmlns="http://www.w3.org/2000/svg"><path d="M2.686 3.267l3.819 3.535 3.82-3.535a1.037 1.037 0 011.387 0 .86.86 0 010 1.284L7.194 8.733a1.037 1.037 0 01-1.388 0L1.288 4.551a.86.86 0 010-1.284c.384-.347 1.014-.356 1.398 0z" fill="#9699AB"/></svg><svg fill="none" viewBox="0 0 11 6" id="arrow-menu" xmlns="http://www.w3.org/2000/svg"><path d="M1.686.267l3.819 3.535L9.325.267a1.037 1.037 0 011.387 0 .86.86 0 010 1.284L6.194 5.733a1.037 1.037 0 01-1.388 0L.288 1.551a.86.86 0 010-1.284c.384-.347 1.014-.356 1.398 0z" fill="#9699AB"/></svg><svg fill="none" viewBox="0 0 11 11" id="arrow-quantity" xmlns="http://www.w3.org/2000/svg"><path d="M2.38 7.778l3.124-2.946 3.125 2.946a.837.837 0 001.135 0 .726.726 0 000-1.07L6.068 3.221a.837.837 0 00-1.136 0L1.236 6.707a.726.726 0 000 1.07.855.855 0 001.143 0z" fill="#9699AB"/></svg><svg fill="none" viewBox="0 0 18 18" id="close" xmlns="http://www.w3.org/2000/svg"><path d="M14.25 4.808L13.193 3.75 9 7.942 4.808 3.75 3.75 4.808 7.942 9 3.75 13.193l1.058 1.057L9 10.057l4.193 4.193 1.057-1.057L10.057 9l4.193-4.192z" fill="#9699AB"/></svg><svg fill="none" viewBox="0 0 21 13" id="copy" xmlns="http://www.w3.org/2000/svg"><g clip-path="url(#iclip0_401_16)"><path d="M14.268 1.315H4.228c-.92 0-1.673.439-1.673.975v6.827h1.673V2.29h10.04v-.975zm2.51 1.95H7.573c-.92 0-1.673.44-1.673.976v6.827c0 .536.753.975 1.673.975h9.203c.92 0 1.674-.439 1.674-.975V4.24c0-.537-.753-.976-1.674-.976zm0 7.803H7.573V4.24h9.204v6.827z" fill="#fff"/></g><defs><clipPath id="iclip0_401_16"><path fill="#fff" transform="translate(.882 .827)" d="M0 0h20.079v11.704H0z"/></clipPath></defs></svg><svg viewBox="0 0 24 24" id="correct" xmlns="http://www.w3.org/2000/svg"><path d="M14 11c0 .55-.45 1-1 1H4c-.55 0-1-.45-1-1s.45-1 1-1h9c.55 0 1 .45 1 1zM3 7c0 .55.45 1 1 1h9c.55 0 1-.45 1-1s-.45-1-1-1H4c-.55 0-1 .45-1 1zm7 8c0-.55-.45-1-1-1H4c-.55 0-1 .45-1 1s.45 1 1 1h5c.55 0 1-.45 1-1zm8.01-2.13l.71-.71a.996.996 0 011.41 0l.71.71c.39.39.39 1.02 0 1.41l-.71.71-2.12-2.12zm-.71.71l-5.16 5.16c-.09.09-.14.21-.14.35v1.41c0 .28.22.5.5.5h1.41c.13 0 .26-.05.35-.15l5.16-5.16-2.12-2.11z"/></svg><svg viewBox="0 0 24 24" id="delete" xmlns="http://www.w3.org/2000/svg"><path d="M6 19c0 1.1.9 2 2 2h8c1.1 0 2-.9 2-2V9c0-1.1-.9-2-2-2H8c-1.1 0-2 .9-2 2v10zM9 9h6c.55 0 1 .45 1 1v8c0 .55-.45 1-1 1H9c-.55 0-1-.45-1-1v-8c0-.55.45-1 1-1zm6.5-5l-.71-.71c-.18-.18-.44-.29-.7-.29H9.91c-.26 0-.52.11-.7.29L8.5 4H6c-.55 0-1 .45-1 1s.45 1 1 1h12c.55 0 1-.45 1-1s-.45-1-1-1h-2.5z"/></svg><svg viewBox="0 0 16 16" id="code" xmlns="http://www.w3.org/2000/svg"> <path d="M5.854 4.854a.5.5 0 1 0-.708-.708l-3.5 3.5a.5.5 0 0 0 0 .708l3.5 3.5a.5.5 0 0 0 .708-.708L2.707 8l3.147-3.146zm4.292 0a.5.5 0 0 1 .708-.708l3.5 3.5a.5.5 0 0 1 0 .708l-3.5 3.5a.5.5 0 0 1-.708-.708L13.293 8l-3.147-3.146z"/></svg><svg fill="none" viewBox="0 0 24 24" id="google" xmlns="http://www.w3.org/2000/svg"><g clip-path="url(#lclip0_1_5233)"><path d="M5.319 14.504l-.835 3.118-3.054.065A11.946 11.946 0 010 12c0-1.99.484-3.866 1.342-5.519l2.719.499 1.19 2.702A7.133 7.133 0 004.868 12c0 .88.16 1.725.452 2.504z" fill="#FBBB00"/><path d="M23.79 9.758a12.027 12.027 0 01-.053 4.747 11.998 11.998 0 01-4.225 6.853l-3.424-.175-.485-3.026a7.151 7.151 0 003.077-3.652h-6.416V9.758H23.79z" fill="#518EF8"/><path d="M19.511 21.357l.001.001A11.95 11.95 0 0112 24c-4.57 0-8.543-2.554-10.57-6.313l3.888-3.184a7.135 7.135 0 0010.285 3.655l3.908 3.2z" fill="#28B446"/><path d="M19.66 2.763l-3.888 3.182a7.137 7.137 0 00-10.52 3.736l-3.91-3.2A11.998 11.998 0 0112 0a11.95 11.95 0 017.66 2.763z" fill="#F14336"/></g><defs><clipPath id="lclip0_1_5233"><path fill="#fff" d="M0 0h24v24H0z"/></clipPath></defs></svg><svg viewBox="0 0 28 28" id="menu01" xmlns="http://www.w3.org/2000/svg"><path d="M24.5 25.667h-21A1.17 1.17 0 012.333 24.5 1.17 1.17 0 013.5 23.334h21a1.17 1.17 0 011.166 1.166 1.17 1.17 0 01-1.166 1.167zM9.916 2.333c-.968 0-1.75.782-1.75 1.75V19.25c0 .968.782 1.75 1.75 1.75.969 0 1.75-.782 1.75-1.75V4.084c0-.969-.781-1.75-1.75-1.75zm8.167 7c-.968 0-1.75.782-1.75 1.75v8.167c0 .968.782 1.75 1.75 1.75s1.75-.782 1.75-1.75v-8.166c0-.969-.782-1.75-1.75-1.75z"/></svg><svg viewBox="0 0 28 28" id="menu02" xmlns="http://www.w3.org/2000/svg"><path d="M23.193 21.548c.56-.898.875-1.948.805-3.103-.151-2.508-2.146-4.632-4.631-4.9a5.25 5.25 0 00-5.857 5.215 5.24 5.24 0 005.238 5.25 5.174 5.174 0 002.789-.817l2.811 2.812a1.176 1.176 0 001.657 0 1.176 1.176 0 000-1.657l-2.812-2.8zm-4.433.129a2.918 2.918 0 010-5.834 2.918 2.918 0 010 5.834zm-.42-9.917a6.87 6.87 0 00-2.45.525l-.642-.968-3.593 5.845a1.167 1.167 0 01-1.878.151l-2.474-2.881-3.57 5.716a1.175 1.175 0 01-1.68.327 1.171 1.171 0 01-.303-1.563l4.41-7.059a1.173 1.173 0 011.878-.14l2.462 2.87 3.71-6.031a1.162 1.162 0 011.96-.035l2.17 3.243zm3.022.583a6.91 6.91 0 00-2.392-.571l5.297-8.389a1.16 1.16 0 011.668-.315c.502.362.63 1.05.303 1.564l-4.876 7.711z"/></svg><svg viewBox="0 0 28 28" id="menu03" xmlns="http://www.w3.org/2000/svg"><path d="M4.138 20.294v-.803c0-.42.197-.815.506-1a13.451 13.451 0 016.905-1.903c.037 0 .062 0 .1.013.123-.865.37-1.693.728-2.446a9.073 9.073 0 00-.828-.037c-2.99 0-5.78.827-8.165 2.248-1.087.642-1.717 1.853-1.717 3.125v3.274h11.439a8.807 8.807 0 01-1.198-2.47h-7.77zM11.55 12.882a4.94 4.94 0 004.94-4.94A4.94 4.94 0 0011.55 3a4.94 4.94 0 00-4.942 4.941 4.94 4.94 0 004.942 4.941zm0-7.411a2.478 2.478 0 012.47 2.47 2.478 2.478 0 01-2.47 2.47 2.478 2.478 0 01-2.471-2.47 2.478 2.478 0 012.47-2.47zM24.828 17.824c0-.272-.037-.52-.074-.779l1.408-1.247-1.235-2.137-1.791.605a4.505 4.505 0 00-1.334-.778l-.37-1.84H18.96l-.37 1.84a4.505 4.505 0 00-1.335.778l-1.791-.605-1.236 2.137 1.409 1.247c-.037.26-.074.507-.074.779 0 .271.037.518.074.778l-1.409 1.247 1.236 2.137 1.791-.605c.395.334.84.593 1.334.778L18.96 24h2.471l.37-1.84a4.503 4.503 0 001.335-.779l1.791.605 1.235-2.137-1.408-1.247c.037-.26.074-.507.074-.778zm-4.632 2.47a2.478 2.478 0 01-2.47-2.47 2.478 2.478 0 012.47-2.471 2.478 2.478 0 012.47 2.47 2.478 2.478 0 01-2.47 2.471z"/></svg><svg viewBox="0 0 28 28" id="menu04" xmlns="http://www.w3.org/2000/svg"><path d="M14 2.333C7.56 2.333 2.333 7.56 2.333 14c0 6.44 5.227 11.667 11.667 11.667 6.44 0 11.666-5.227 11.666-11.667C25.666 7.56 20.44 2.334 14 2.334zm0 21c-5.145 0-9.334-4.188-9.334-9.333 0-5.145 4.189-9.333 9.334-9.333S23.333 8.855 23.333 14c0 5.145-4.188 9.334-9.333 9.334zm-1.167-4.666h2.333V21h-2.333v-2.333zm1.878-11.62a4.669 4.669 0 00-5.168 3.255 1.058 1.058 0 001.015 1.365h.233c.479 0 .864-.338 1.027-.782a2.336 2.336 0 012.683-1.493c1.109.233 1.925 1.318 1.832 2.45-.117 1.563-1.89 1.901-2.858 3.36 0 .011-.012.011-.012.023-.012.024-.023.035-.035.059a3.89 3.89 0 00-.292.583c-.011.035-.035.058-.046.093-.012.023-.012.047-.024.082-.14.396-.233.875-.233 1.458h2.333c0-.49.129-.898.327-1.248.023-.035.035-.07.058-.105.094-.163.21-.315.327-.455.012-.012.023-.035.035-.047a4.1 4.1 0 01.385-.396c1.12-1.062 2.637-1.926 2.322-4.154-.28-2.03-1.879-3.745-3.909-4.048z"/></svg><svg viewBox="0 0 28 28" id="menu05" xmlns="http://www.w3.org/2000/svg"><path d="M22.167 3.5H5.833A2.333 2.333 0 003.5 5.833v16.334A2.333 2.333 0 005.833 24.5h16.334a2.34 2.34 0 002.333-2.333V5.833A2.333 2.333 0 0022.167 3.5zm0 18.667H5.833v-14h16.334v14zM18.667 14H9.333a1.17 1.17 0 01-1.166-1.167 1.17 1.17 0 011.166-1.166h9.334a1.17 1.17 0 011.166 1.166A1.17 1.17 0 0118.667 14zM14 18.667H9.333A1.17 1.17 0 018.167 17.5a1.17 1.17 0 011.166-1.167H14a1.17 1.17 0 011.167 1.167A1.17 1.17 0 0114 18.667z"/></svg><svg fill="none" viewBox="0 0 16 18" id="message" xmlns="http://www.w3.org/2000/svg"><path fill-rule="evenodd" clip-rule="evenodd" d="M10 16a2 2 0 11-4 0h4zM15.29 13.29L14 12V7c0-3.07-1.64-5.64-4.5-6.32C9.5.68 8.59.5 8 .5S6.5.68 6.5.68C3.63 1.36 2 3.92 2 7v5L.71 13.29c-.63.63-.19 1.71.7 1.71h13.17c.9 0 1.34-1.08.71-1.71zM4 13h8V7c0-2.48-1.51-4.5-4-4.5S4 4.52 4 7v6z" fill="#9699AB"/></svg><svg fill="none" viewBox="0 0 18 17" id="plus" xmlns="http://www.w3.org/2000/svg"><circle cx="8.505" cy="8.5" r="8.5" fill="#32AD67"/><path d="M12.362 9.143H9.148v3.214c0 .354-.29.643-.643.643a.645.645 0 01-.643-.643V9.143H4.648a.645.645 0 01-.643-.643c0-.354.29-.643.643-.643h3.214V4.643c0-.354.29-.643.643-.643.353 0 .643.29.643.643v3.214h3.214c.354 0 .643.29.643.643 0 .354-.29.643-.643.643z" fill="#fff"/></svg><svg fill="none" viewBox="0 0 24 24" id="plus1" xmlns="http://www.w3.org/2000/svg"><path d="M19 13h-6v6h-2v-6H5v-2h6V5h2v6h6v2z" fill="#9699AB"/></svg><svg fill="none" viewBox="0 0 17 17" id="plus2" xmlns="http://www.w3.org/2000/svg"><path d="M17 8.5a8.5 8.5 0 11-17 0 8.5 8.5 0 0117 0z" fill="#fff"/><path d="M12.357 9.143H9.143v3.214c0 .354-.29.643-.643.643a.645.645 0 01-.643-.643V9.143H4.643A.645.645 0 014 8.5c0-.354.29-.643.643-.643h3.214V4.643c0-.354.29-.643.643-.643.354 0 .643.29.643.643v3.214h3.214c.354 0 .643.29.643.643 0 .354-.29.643-.643.643z" fill="#32AD67"/></svg><svg fill="none" viewBox="0 0 18 18" id="search" xmlns="http://www.w3.org/2000/svg"><path d="M12.5 11h-.79l-.28-.27a6.5 6.5 0 001.48-5.34c-.47-2.78-2.79-5-5.59-5.34A6.505 6.505 0 00.05 7.32c.34 2.8 2.56 5.12 5.34 5.59a6.5 6.5 0 005.34-1.48l.27.28v.79l4.25 4.25c.41.41 1.08.41 1.49 0 .41-.41.41-1.08 0-1.49L12.5 11zm-6 0C4.01 11 2 8.99 2 6.5S4.01 2 6.5 2 11 4.01 11 6.5 8.99 11 6.5 11z" fill="#9699AB"/></svg><svg viewBox="0 0 24 24" id="stat" xmlns="http://www.w3.org/2000/svg"><path d="M19.88 18.47c.48-.77.75-1.67.69-2.66-.13-2.15-1.84-3.97-3.97-4.2a4.5 4.5 0 00-5.02 4.47c0 2.49 2.01 4.5 4.49 4.5.88 0 1.7-.26 2.39-.7l2.41 2.41c.39.39 1.03.39 1.42 0 .39-.39.39-1.03 0-1.42l-2.41-2.4zm-3.8.11a2.5 2.5 0 010-5 2.5 2.5 0 010 5zm-.36-8.5c-.74.02-1.45.18-2.1.45l-.55-.83-3.08 5.01a1 1 0 01-1.61.13l-2.12-2.47-3.06 4.9c-.31.49-.97.62-1.44.28-.42-.31-.54-.89-.26-1.34l3.78-6.05c.36-.57 1.17-.63 1.61-.12L9 12.5l3.18-5.17a.996.996 0 011.68-.03l1.86 2.78zm2.59.5c-.64-.28-1.33-.45-2.05-.49L20.8 2.9c.31-.49.97-.61 1.43-.27.43.31.54.9.26 1.34l-4.18 6.61z"/></svg><svg fill="none" viewBox="0 0 19 19" id="user01" xmlns="http://www.w3.org/2000/svg"><g clip-path="url(#xclip0_104_333)"><path d="M9.5 1A8.503 8.503 0 001 9.5C1 14.192 4.808 18 9.5 18S18 14.192 18 9.5 14.192 1 9.5 1zM5.31 14.838c.365-.765 2.592-1.513 4.19-1.513 1.598 0 3.834.748 4.19 1.513A6.709 6.709 0 019.5 16.3a6.709 6.709 0 01-4.19-1.462zm9.596-1.232c-1.216-1.48-4.165-1.981-5.406-1.981-1.241 0-4.19.502-5.406 1.98A6.757 6.757 0 012.7 9.5c0-3.748 3.051-6.8 6.8-6.8 3.748 0 6.8 3.051 6.8 6.8a6.757 6.757 0 01-1.394 4.105zM9.5 4.4a2.967 2.967 0 00-2.975 2.975A2.967 2.967 0 009.5 10.35a2.967 2.967 0 002.975-2.975A2.967 2.967 0 009.5 4.4zm0 4.25c-.706 0-1.275-.57-1.275-1.275S8.795 6.1 9.5 6.1c.706 0 1.275.57 1.275 1.275 0 .706-.57 1.275-1.275 1.275z" fill="#32AD67"/></g><defs><clipPath id="xclip0_104_333"><path fill="#fff" d="M0 0h19v19H0z"/></clipPath></defs></svg></svg>