<?xml version="1.0" encoding="utf-8"?><svg viewBox="0 0 28 28" xmlns="http://www.w3.org/2000/svg" xmlns:xlink="http://www.w3.org/1999/xlink"><style>:root>svg{display:none}:root>svg:target{display:block}</style><svg fill="none" viewBox="0 0 27 27" id="arrow-button" xmlns="http://www.w3.org/2000/svg"><path d="M14.819 13.5l-5.57-5.569 1.591-1.59L18 13.5l-7.16 7.16-1.59-1.591 5.569-5.569z" fill="#32AD67"/></svg><svg fill="none" viewBox="0 0 13 13" id="arrow-down" xmlns="http://www.w3.org/2000/svg"><path d="M2.686 3.267l3.819 3.535 3.82-3.535a1.037 1.037 0 011.387 0 .86.86 0 010 1.284L7.194 8.733a1.037 1.037 0 01-1.388 0L1.288 4.551a.86.86 0 010-1.284c.384-.347 1.014-.356 1.398 0z" fill="#9699AB"/></svg><svg fill="none" viewBox="0 0 11 6" id="arrow-menu" xmlns="http://www.w3.org/2000/svg"><path d="M1.686.267l3.819 3.535L9.325.267a1.037 1.037 0 011.387 0 .86.86 0 010 1.284L6.194 5.733a1.037 1.037 0 01-1.388 0L.288 1.551a.86.86 0 010-1.284c.384-.347 1.014-.356 1.398 0z" fill="#9699AB"/></svg><svg fill="none" viewBox="0 0 11 11" id="arrow-quantity" xmlns="http://www.w3.org/2000/svg"><path d="M2.38 7.778l3.124-2.946 3.125 2.946a.837.837 0 001.135 0 .726.726 0 000-1.07L6.068 3.221a.837.837 0 00-1.136 0L1.236 6.707a.726.726 0 000 1.07.855.855 0 001.143 0z" fill="#9699AB"/></svg><svg fill="none" viewBox="0 0 21 13" id="copy" xmlns="http://www.w3.org/2000/svg"><g clip-path="url(#eclip0_401_16)"><path d="M14.268 1.315H4.228c-.92 0-1.673.439-1.673.975v6.827h1.673V2.29h10.04v-.975zm2.51 1.95H7.573c-.92 0-1.673.44-1.673.976v6.827c0 .536.753.975 1.673.975h9.203c.92 0 1.674-.439 1.674-.975V4.24c0-.537-.753-.976-1.674-.976zm0 7.803H7.573V4.24h9.204v6.827z" fill="#fff"/></g><defs><clipPath id="eclip0_401_16"><path fill="#fff" transform="translate(.882 .827)" d="M0 0h20.079v11.704H0z"/></clipPath></defs></svg><svg viewBox="0 0 24 24" id="correct" xmlns="http://www.w3.org/2000/svg"><path d="M14 11c0 .55-.45 1-1 1H4c-.55 0-1-.45-1-1s.45-1 1-1h9c.55 0 1 .45 1 1zM3 7c0 .55.45 1 1 1h9c.55 0 1-.45 1-1s-.45-1-1-1H4c-.55 0-1 .45-1 1zm7 8c0-.55-.45-1-1-1H4c-.55 0-1 .45-1 1s.45 1 1 1h5c.55 0 1-.45 1-1zm8.01-2.13l.71-.71a.996.996 0 011.41 0l.71.71c.39.39.39 1.02 0 1.41l-.71.71-2.12-2.12zm-.71.71l-5.16 5.16c-.09.09-.14.21-.14.35v1.41c0 .28.22.5.5.5h1.41c.13 0 .26-.05.35-.15l5.16-5.16-2.12-2.11z"/></svg><svg viewBox="0 0 24 24" id="delete" xmlns="http://www.w3.org/2000/svg"><path d="M6 19c0 1.1.9 2 2 2h8c1.1 0 2-.9 2-2V9c0-1.1-.9-2-2-2H8c-1.1 0-2 .9-2 2v10zM9 9h6c.55 0 1 .45 1 1v8c0 .55-.45 1-1 1H9c-.55 0-1-.45-1-1v-8c0-.55.45-1 1-1zm6.5-5l-.71-.71c-.18-.18-.44-.29-.7-.29H9.91c-.26 0-.52.11-.7.29L8.5 4H6c-.55 0-1 .45-1 1s.45 1 1 1h12c.55 0 1-.45 1-1s-.45-1-1-1h-2.5z"/></svg><svg viewBox="0 0 28 28" id="menu01" xmlns="http://www.w3.org/2000/svg"><path d="M24.5 25.667h-21A1.17 1.17 0 012.333 24.5 1.17 1.17 0 013.5 23.334h21a1.17 1.17 0 011.166 1.166 1.17 1.17 0 01-1.166 1.167zM9.916 2.333c-.968 0-1.75.782-1.75 1.75V19.25c0 .968.782 1.75 1.75 1.75.969 0 1.75-.782 1.75-1.75V4.084c0-.969-.781-1.75-1.75-1.75zm8.167 7c-.968 0-1.75.782-1.75 1.75v8.167c0 .968.782 1.75 1.75 1.75s1.75-.782 1.75-1.75v-8.166c0-.969-.782-1.75-1.75-1.75z"/></svg><svg viewBox="0 0 28 28" id="menu02" xmlns="http://www.w3.org/2000/svg"><path d="M23.193 21.548c.56-.898.875-1.948.805-3.103-.151-2.508-2.146-4.632-4.631-4.9a5.25 5.25 0 00-5.857 5.215 5.24 5.24 0 005.238 5.25 5.174 5.174 0 002.789-.817l2.811 2.812a1.176 1.176 0 001.657 0 1.176 1.176 0 000-1.657l-2.812-2.8zm-4.433.129a2.918 2.918 0 010-5.834 2.918 2.918 0 010 5.834zm-.42-9.917a6.87 6.87 0 00-2.45.525l-.642-.968-3.593 5.845a1.167 1.167 0 01-1.878.151l-2.474-2.881-3.57 5.716a1.175 1.175 0 01-1.68.327 1.171 1.171 0 01-.303-1.563l4.41-7.059a1.173 1.173 0 011.878-.14l2.462 2.87 3.71-6.031a1.162 1.162 0 011.96-.035l2.17 3.243zm3.022.583a6.91 6.91 0 00-2.392-.571l5.297-8.389a1.16 1.16 0 011.668-.315c.502.362.63 1.05.303 1.564l-4.876 7.711z"/></svg><svg viewBox="0 0 28 28" id="menu03" xmlns="http://www.w3.org/2000/svg"><path d="M4.138 20.294v-.803c0-.42.197-.815.506-1a13.451 13.451 0 016.905-1.903c.037 0 .062 0 .1.013.123-.865.37-1.693.728-2.446a9.073 9.073 0 00-.828-.037c-2.99 0-5.78.827-8.165 2.248-1.087.642-1.717 1.853-1.717 3.125v3.274h11.439a8.807 8.807 0 01-1.198-2.47h-7.77zM11.55 12.882a4.94 4.94 0 004.94-4.94A4.94 4.94 0 0011.55 3a4.94 4.94 0 00-4.942 4.941 4.94 4.94 0 004.942 4.941zm0-7.411a2.478 2.478 0 012.47 2.47 2.478 2.478 0 01-2.47 2.47 2.478 2.478 0 01-2.471-2.47 2.478 2.478 0 012.47-2.47zM24.828 17.824c0-.272-.037-.52-.074-.779l1.408-1.247-1.235-2.137-1.791.605a4.505 4.505 0 00-1.334-.778l-.37-1.84H18.96l-.37 1.84a4.505 4.505 0 00-1.335.778l-1.791-.605-1.236 2.137 1.409 1.247c-.037.26-.074.507-.074.779 0 .271.037.518.074.778l-1.409 1.247 1.236 2.137 1.791-.605c.395.334.84.593 1.334.778L18.96 24h2.471l.37-1.84a4.503 4.503 0 001.335-.779l1.791.605 1.235-2.137-1.408-1.247c.037-.26.074-.507.074-.778zm-4.632 2.47a2.478 2.478 0 01-2.47-2.47 2.478 2.478 0 012.47-2.471 2.478 2.478 0 012.47 2.47 2.478 2.478 0 01-2.47 2.471z"/></svg>
<svg viewBox="0 0 28 28" id="menu04" xmlns="http://www.w3.org/2000/svg">
	<path d="M14 2.333C7.56 2.333 2.333 7.56 2.333 14c0 6.44 5.227 11.667 11.667 11.667 6.44 0 11.666-5.227 11.666-11.667C25.666 7.56 20.44 2.334 14 2.334zm0 21c-5.145 0-9.334-4.188-9.334-9.333 0-5.145 4.189-9.333 9.334-9.333S23.333 8.855 23.333 14c0 5.145-4.188 9.334-9.333 9.334zm-1.167-4.666h2.333V21h-2.333v-2.333zm1.878-11.62a4.669 4.669 0 00-5.168 3.255 1.058 1.058 0 001.015 1.365h.233c.479 0 .864-.338 1.027-.782a2.336 2.336 0 012.683-1.493c1.109.233 1.925 1.318 1.832 2.45-.117 1.563-1.89 1.901-2.858 3.36 0 .011-.012.011-.012.023-.012.024-.023.035-.035.059a3.89 3.89 0 00-.292.583c-.011.035-.035.058-.046.093-.012.023-.012.047-.024.082-.14.396-.233.875-.233 1.458h2.333c0-.49.129-.898.327-1.248.023-.035.035-.07.058-.105.094-.163.21-.315.327-.455.012-.012.023-.035.035-.047a4.1 4.1 0 01.385-.396c1.12-1.062 2.637-1.926 2.322-4.154-.28-2.03-1.879-3.745-3.909-4.048z"/>
</svg>

<svg viewBox="0 0 28 28" id="menu05" xmlns="http://www.w3.org/2000/svg"><path d="M22.167 3.5H5.833A2.333 2.333 0 003.5 5.833v16.334A2.333 2.333 0 005.833 24.5h16.334a2.34 2.34 0 002.333-2.333V5.833A2.333 2.333 0 0022.167 3.5zm0 18.667H5.833v-14h16.334v14zM18.667 14H9.333a1.17 1.17 0 01-1.166-1.167 1.17 1.17 0 011.166-1.166h9.334a1.17 1.17 0 011.166 1.166A1.17 1.17 0 0118.667 14zM14 18.667H9.333A1.17 1.17 0 018.167 17.5a1.17 1.17 0 011.166-1.167H14a1.17 1.17 0 011.167 1.167A1.17 1.17 0 0114 18.667z"/></svg><svg fill="none" viewBox="0 0 16 18" id="message" xmlns="http://www.w3.org/2000/svg"><path fill-rule="evenodd" clip-rule="evenodd" d="M10 16a2 2 0 11-4 0h4zM15.29 13.29L14 12V7c0-3.07-1.64-5.64-4.5-6.32C9.5.68 8.59.5 8 .5S6.5.68 6.5.68C3.63 1.36 2 3.92 2 7v5L.71 13.29c-.63.63-.19 1.71.7 1.71h13.17c.9 0 1.34-1.08.71-1.71zM4 13h8V7c0-2.48-1.51-4.5-4-4.5S4 4.52 4 7v6z" fill="#9699AB"/></svg><svg fill="none" viewBox="0 0 18 17" id="plus" xmlns="http://www.w3.org/2000/svg"><circle cx="8.505" cy="8.5" r="8.5" fill="#32AD67"/><path d="M12.362 9.143H9.148v3.214c0 .354-.29.643-.643.643a.645.645 0 01-.643-.643V9.143H4.648a.645.645 0 01-.643-.643c0-.354.29-.643.643-.643h3.214V4.643c0-.354.29-.643.643-.643.353 0 .643.29.643.643v3.214h3.214c.354 0 .643.29.643.643 0 .354-.29.643-.643.643z" fill="#fff"/></svg><svg fill="none" viewBox="0 0 17 17" id="plus2" xmlns="http://www.w3.org/2000/svg"><path d="M17 8.5a8.5 8.5 0 11-17 0 8.5 8.5 0 0117 0z" fill="#fff"/><path d="M12.357 9.143H9.143v3.214c0 .354-.29.643-.643.643a.645.645 0 01-.643-.643V9.143H4.643A.645.645 0 014 8.5c0-.354.29-.643.643-.643h3.214V4.643c0-.354.29-.643.643-.643.354 0 .643.29.643.643v3.214h3.214c.354 0 .643.29.643.643 0 .354-.29.643-.643.643z" fill="#32AD67"/></svg><svg fill="none" viewBox="0 0 18 18" id="search" xmlns="http://www.w3.org/2000/svg"><path d="M12.5 11h-.79l-.28-.27a6.5 6.5 0 001.48-5.34c-.47-2.78-2.79-5-5.59-5.34A6.505 6.505 0 00.05 7.32c.34 2.8 2.56 5.12 5.34 5.59a6.5 6.5 0 005.34-1.48l.27.28v.79l4.25 4.25c.41.41 1.08.41 1.49 0 .41-.41.41-1.08 0-1.49L12.5 11zm-6 0C4.01 11 2 8.99 2 6.5S4.01 2 6.5 2 11 4.01 11 6.5 8.99 11 6.5 11z" fill="#9699AB"/></svg><svg viewBox="0 0 24 24" id="stat" xmlns="http://www.w3.org/2000/svg"><path d="M19.88 18.47c.48-.77.75-1.67.69-2.66-.13-2.15-1.84-3.97-3.97-4.2a4.5 4.5 0 00-5.02 4.47c0 2.49 2.01 4.5 4.49 4.5.88 0 1.7-.26 2.39-.7l2.41 2.41c.39.39 1.03.39 1.42 0 .39-.39.39-1.03 0-1.42l-2.41-2.4zm-3.8.11a2.5 2.5 0 010-5 2.5 2.5 0 010 5zm-.36-8.5c-.74.02-1.45.18-2.1.45l-.55-.83-3.08 5.01a1 1 0 01-1.61.13l-2.12-2.47-3.06 4.9c-.31.49-.97.62-1.44.28-.42-.31-.54-.89-.26-1.34l3.78-6.05c.36-.57 1.17-.63 1.61-.12L9 12.5l3.18-5.17a.996.996 0 011.68-.03l1.86 2.78zm2.59.5c-.64-.28-1.33-.45-2.05-.49L20.8 2.9c.31-.49.97-.61 1.43-.27.43.31.54.9.26 1.34l-4.18 6.61z"/></svg>

<svg width="28" height="28" viewBox="0 0 28 28" id="user" xmlns="http://www.w3.org/2000/svg">
<path d="M5 26C5 23.6762 5.94821 21.4476 7.63604 19.8044C9.32387 18.1612 11.6131 17.2381 14 17.2381C16.3869 17.2381 18.6761 18.1612 20.364 19.8044C22.0518 21.4476 23 23.6762 23 26H20.364C20.1875 24.3571 19.625 22.7143 18.5 21.619C17.3231 20.4732 15.6875 19.8044 14 19.8044C12.4508 19.8044 10.625 20.5238 9.5 21.619C8.46922 22.6226 7.8125 24.3571 7.63604 26H5ZM14 16.1429C10.2706 16.1429 7.25 13.2021 7.25 9.57143C7.25 5.94071 10.2706 3 14 3C17.7294 3 20.75 5.94071 20.75 9.57143C20.75 13.2021 17.7294 16.1429 14 16.1429ZM14 13.4048C16.4862 13.4048 17.9375 11.7619 17.9375 9.57143C17.9375 7.38095 16.0686 5.7381 14 5.7381C11.75 5.7381 10.0625 7.38095 10.0625 9.57143C10.0625 11.7619 11.75 13.4048 14 13.4048Z"/>
</svg>
<svg width="28" height="28" viewBox="0 0 28 28" id="billing" xmlns="http://www.w3.org/2000/svg">
<path d="M6.61801 4.96638C11.2007 1.21088 17.9732 1.47222 22.2513 5.75038C26.8072 10.3062 26.8072 17.6936 22.2513 22.2494C17.6955 26.8052 10.3082 26.8052 5.75235 22.2494C4.35425 20.8532 3.33394 19.1246 2.78722 17.2259C2.2405 15.3271 2.18531 13.3206 2.62685 11.3947L2.71668 11.0296L4.97301 11.6246C4.41365 13.7505 4.62266 16.0057 5.56321 17.9927C6.50375 19.9796 8.11547 21.5708 10.1143 22.4858C12.1132 23.4009 14.3708 23.5809 16.4895 22.9944C18.6081 22.4078 20.4517 21.0923 21.6953 19.2795C22.939 17.4668 23.5029 15.2733 23.2876 13.0855C23.0724 10.8978 22.0918 8.85619 20.5187 7.32061C18.9456 5.78502 16.881 4.85399 14.6886 4.69159C12.4963 4.52919 10.317 5.14585 8.53485 6.43288L8.27701 6.62655L9.46351 7.81305L4.10151 9.04972L5.33818 3.68772L6.61685 4.96638H6.61801ZM15.1685 6.99989V9.33322H18.0852V11.6666H11.6685C11.5227 11.6663 11.3822 11.7206 11.2744 11.8188C11.1667 11.917 11.0997 12.052 11.0865 12.1972C11.0733 12.3424 11.115 12.4872 11.2033 12.6032C11.2916 12.7192 11.4201 12.7979 11.5635 12.8239L11.6685 12.8332H16.3352C17.1087 12.8332 17.8506 13.1405 18.3976 13.6875C18.9446 14.2345 19.2518 14.9763 19.2518 15.7499C19.2518 16.5234 18.9446 17.2653 18.3976 17.8123C17.8506 18.3593 17.1087 18.6666 16.3352 18.6666H15.1685V20.9999H12.8352V18.6666H9.91851V16.3332H16.3352C16.481 16.3335 16.6215 16.2792 16.7293 16.181C16.837 16.0828 16.904 15.9478 16.9172 15.8026C16.9304 15.6574 16.8887 15.5126 16.8004 15.3966C16.7121 15.2806 16.5836 15.2019 16.4402 15.1759L16.3352 15.1666H11.6685C10.895 15.1666 10.1531 14.8593 9.60612 14.3123C9.05914 13.7653 8.75185 13.0234 8.75185 12.2499C8.75185 11.4763 9.05914 10.7345 9.60612 10.1875C10.1531 9.64051 10.895 9.33322 11.6685 9.33322H12.8352V6.99989H15.1685Z"/>
</svg>

</svg>