<svg width="28" height="28" viewBox="0 0 28 28" fill="none" xmlns="http://www.w3.org/2000/svg">
<path d="M5 26C5 23.6762 5.94821 21.4476 7.63604 19.8044C9.32387 18.1612 11.6131 17.2381 14 17.2381C16.3869 17.2381 18.6761 18.1612 20.364 19.8044C22.0518 21.4476 23 23.6762 23 26H20.364C20.1875 24.3571 19.625 22.7143 18.5 21.619C17.3231 20.4732 15.6875 19.8044 14 19.8044C12.4508 19.8044 10.625 20.5238 9.5 21.619C8.46922 22.6226 7.8125 24.3571 7.63604 26H5ZM14 16.1429C10.2706 16.1429 7.25 13.2021 7.25 9.57143C7.25 5.94071 10.2706 3 14 3C17.7294 3 20.75 5.94071 20.75 9.57143C20.75 13.2021 17.7294 16.1429 14 16.1429ZM14 13.4048C16.4863 13.4048 17.9375 11.7619 17.9375 9.57143C17.9375 7.38095 16.0686 5.7381 14 5.7381C11.75 5.7381 10.0625 7.38095 10.0625 9.57143C10.0625 11.7619 11.75 13.4048 14 13.4048Z" fill="#5262EE"/>
</svg>
