<svg width="76" height="76" viewBox="0 0 76 76" fill="none" xmlns="http://www.w3.org/2000/svg">
<rect opacity="0.23" x="0.000488281" width="76" height="76" rx="38" fill="#32AD67"/>
<path d="M46.0005 48H30.0005C29.7353 48 29.4809 47.8946 29.2934 47.7071C29.1058 47.5196 29.0005 47.2652 29.0005 47V29C29.0005 28.7348 29.1058 28.4804 29.2934 28.2929C29.4809 28.1054 29.7353 28 30.0005 28H46.0005C46.2657 28 46.5201 28.1054 46.7076 28.2929C46.8951 28.4804 47.0005 28.7348 47.0005 29V47C47.0005 47.2652 46.8951 47.5196 46.7076 47.7071C46.5201 47.8946 46.2657 48 46.0005 48ZM45.0005 46V30H31.0005V46H45.0005ZM34.0005 33H42.0005V35H34.0005V33ZM34.0005 37H42.0005V39H34.0005V37ZM34.0005 41H42.0005V43H34.0005V41Z" fill="#32AD67"/>
</svg>
