<svg width="76" height="76" viewBox="0 0 76 76" fill="none" xmlns="http://www.w3.org/2000/svg">
<rect opacity="0.23" x="0.000244141" width="76" height="76" rx="38" fill="#32AD67"/>
<path d="M38.0002 44.485L42.2432 40.243C43.0823 39.4038 43.6536 38.3347 43.885 37.1709C44.1165 36.007 43.9976 34.8007 43.5434 33.7044C43.0893 32.6081 42.3202 31.6711 41.3336 31.0118C40.3469 30.3526 39.1869 30.0007 38.0002 30.0007C36.8136 30.0007 35.6536 30.3526 34.6669 31.0118C33.6803 31.6711 32.9112 32.6081 32.4571 33.7044C32.0029 34.8007 31.884 36.007 32.1155 37.1709C32.3469 38.3347 32.9182 39.4038 33.7572 40.243L38.0002 44.485ZM43.6572 41.657L38.0002 47.314L32.3432 41.657C31.2245 40.5382 30.4626 39.1127 30.1539 37.5609C29.8453 36.009 30.0037 34.4005 30.6093 32.9387C31.2148 31.4769 32.2401 30.2275 33.5557 29.3485C34.8713 28.4695 36.418 28.0003 38.0002 28.0003C39.5825 28.0003 41.1292 28.4695 42.4448 29.3485C43.7604 30.2275 44.7857 31.4769 45.3912 32.9387C45.9968 34.4005 46.1552 36.009 45.8466 37.5609C45.5379 39.1127 44.776 40.5382 43.6572 41.657ZM31.0002 48H45.0002V50H31.0002V48Z" fill="#32AD67"/>
</svg>
