<svg width="45" height="45" viewBox="0 0 45 45" fill="none" xmlns="http://www.w3.org/2000/svg">
<circle cx="22.5" cy="22.5" r="22.5" fill="#F7F8FC"/>
<path d="M27.5833 29.5C26.8098 29.5 26.0679 29.1927 25.5209 28.6457C24.974 28.0987 24.6667 27.3569 24.6667 26.5833C24.6667 25.8098 24.974 25.0679 25.5209 24.5209C26.0679 23.974 26.8098 23.6667 27.5833 23.6667C28.3569 23.6667 29.0987 23.974 29.6457 24.5209C30.1927 25.0679 30.5 25.8098 30.5 26.5833C30.5 27.3569 30.1927 28.0987 29.6457 28.6457C29.0987 29.1927 28.3569 29.5 27.5833 29.5ZM27.5833 27.8333C27.9149 27.8333 28.2328 27.7016 28.4672 27.4672C28.7016 27.2328 28.8333 26.9149 28.8333 26.5833C28.8333 26.2518 28.7016 25.9339 28.4672 25.6995C28.2328 25.465 27.9149 25.3333 27.5833 25.3333C27.2518 25.3333 26.9339 25.465 26.6995 25.6995C26.465 25.9339 26.3333 26.2518 26.3333 26.5833C26.3333 26.9149 26.465 27.2328 26.6995 27.4672C26.9339 27.7016 27.2518 27.8333 27.5833 27.8333ZM18.4167 20.3333C18.0336 20.3333 17.6544 20.2579 17.3005 20.1113C16.9466 19.9647 16.6251 19.7499 16.3543 19.4791C16.0834 19.2082 15.8686 18.8867 15.722 18.5328C15.5754 18.179 15.5 17.7997 15.5 17.4167C15.5 17.0336 15.5754 16.6544 15.722 16.3005C15.8686 15.9466 16.0834 15.6251 16.3543 15.3543C16.6251 15.0834 16.9466 14.8686 17.3005 14.722C17.6544 14.5754 18.0336 14.5 18.4167 14.5C19.1902 14.5 19.9321 14.8073 20.4791 15.3543C21.026 15.9013 21.3333 16.6431 21.3333 17.4167C21.3333 18.1902 21.026 18.9321 20.4791 19.4791C19.9321 20.026 19.1902 20.3333 18.4167 20.3333ZM18.4167 18.6667C18.7482 18.6667 19.0661 18.535 19.3006 18.3006C19.535 18.0661 19.6667 17.7482 19.6667 17.4167C19.6667 17.0851 19.535 16.7672 19.3006 16.5328C19.0661 16.2984 18.7482 16.1667 18.4167 16.1667C18.0851 16.1667 17.7672 16.2984 17.5328 16.5328C17.2984 16.7672 17.1667 17.0851 17.1667 17.4167C17.1667 17.7482 17.2984 18.0661 17.5328 18.3006C17.7672 18.535 18.0851 18.6667 18.4167 18.6667ZM28.8925 14.9292L30.0708 16.1075L17.1083 29.0708L15.93 27.8925L28.8917 14.9292H28.8925Z" fill="#5262EE"/>
</svg>
