<svg width="45" height="45" viewBox="0 0 45 45" fill="none" xmlns="http://www.w3.org/2000/svg">
<circle cx="22.5" cy="22.5" r="22.5" fill="#F7F8FC"/>
<path d="M20.3109 27H21.1668V22.8333H22.8334V27H23.6893C23.7993 25.9983 24.3101 25.1716 25.1393 24.2691C25.2334 24.1675 25.8326 23.5466 25.9034 23.4583C26.492 22.723 26.8609 21.8364 26.9677 20.9006C27.0745 19.9648 26.9148 19.0179 26.507 18.1689C26.0992 17.3199 25.4599 16.6034 24.6627 16.1018C23.8655 15.6002 22.9428 15.334 22.001 15.3338C21.0591 15.3336 20.1364 15.5994 19.339 16.1007C18.5416 16.6019 17.902 17.3182 17.4938 18.167C17.0856 19.0158 16.9255 19.9627 17.0319 20.8985C17.1383 21.8343 17.5068 22.7211 18.0951 23.4566C18.1668 23.5458 18.7676 24.1675 18.8601 24.2683C19.6901 25.1716 20.2009 25.9983 20.3109 27ZM20.3334 28.6666V29.5H23.6668V28.6666H20.3334ZM16.7951 24.5C16.0102 23.5194 15.5184 22.337 15.3761 21.0891C15.2339 19.8412 15.4471 18.5785 15.9911 17.4464C16.5352 16.3144 17.388 15.359 18.4512 14.6905C19.5145 14.0219 20.745 13.6673 22.001 13.6675C23.257 13.6677 24.4874 14.0227 25.5504 14.6916C26.6135 15.3605 27.466 16.3161 28.0096 17.4484C28.5533 18.5806 28.7661 19.8434 28.6235 21.0912C28.4808 22.3391 27.9886 23.5213 27.2034 24.5016C26.6868 25.145 25.3334 26.1666 25.3334 27.4166V29.5C25.3334 29.942 25.1578 30.3659 24.8453 30.6785C24.5327 30.9911 24.1088 31.1666 23.6668 31.1666H20.3334C19.8914 31.1666 19.4675 30.9911 19.1549 30.6785C18.8424 30.3659 18.6668 29.942 18.6668 29.5V27.4166C18.6668 26.1666 17.3126 25.145 16.7951 24.5Z" fill="#5262EE"/>
</svg>
