<svg width="45" height="45" viewBox="0 0 45 45" fill="none" xmlns="http://www.w3.org/2000/svg">
<circle cx="22.5" cy="22.5" r="22.5" fill="#F7F8FC"/>
<path d="M29.6667 31.3334H16.3333C16.1123 31.3334 15.9004 31.2456 15.7441 31.0893C15.5878 30.933 15.5 30.721 15.5 30.5V15.5C15.5 15.279 15.5878 15.067 15.7441 14.9108C15.9004 14.7545 16.1123 14.6667 16.3333 14.6667H29.6667C29.8877 14.6667 30.0996 14.7545 30.2559 14.9108C30.4122 15.067 30.5 15.279 30.5 15.5V30.5C30.5 30.721 30.4122 30.933 30.2559 31.0893C30.0996 31.2456 29.8877 31.3334 29.6667 31.3334ZM28.8333 29.6667V16.3334H17.1667V29.6667H28.8333ZM19.6667 18.8334H26.3333V20.5H19.6667V18.8334ZM19.6667 22.1667H26.3333V23.8334H19.6667V22.1667ZM19.6667 25.5H23.8333V27.1667H19.6667V25.5Z" fill="#5262EE"/>
</svg>
