<svg width="810" height="644" viewBox="0 0 810 644" fill="none" xmlns="http://www.w3.org/2000/svg">
<g clip-path="url(#clip0_1_5103)">
<path d="M377.429 457.572L397.264 483.248L406.904 475.052L389.244 447.281L377.429 457.572Z" fill="white"/>
<path d="M397.123 484.489C396.958 484.469 396.799 484.417 396.654 484.336C396.509 484.254 396.383 484.144 396.281 484.012L376.445 458.342C376.25 458.091 376.158 457.774 376.189 457.457C376.221 457.141 376.373 456.848 376.614 456.64L388.429 446.349C388.563 446.23 388.722 446.142 388.894 446.092C389.066 446.041 389.247 446.029 389.424 446.057C389.601 446.082 389.771 446.145 389.921 446.241C390.072 446.338 390.2 446.466 390.296 446.617L407.95 474.387C408.111 474.639 408.175 474.941 408.13 475.236C408.085 475.532 407.935 475.801 407.706 475.994L398.049 484.189C397.921 484.298 397.772 484.379 397.611 484.429C397.45 484.478 397.281 484.494 397.113 484.476L397.123 484.489ZM379.134 457.724L397.454 481.44L405.282 474.783L388.979 449.144L379.134 457.724Z" fill="#262424"/>
<path d="M391.633 549.915L395.729 553.77L443.651 503.292C443.651 503.292 441.667 501.111 438.226 497.555C428.033 486.918 417.236 476.874 405.888 467.473L388 481.135C388 481.135 389.294 508.597 388.844 531.519C388.798 533.895 388.655 536.318 388.385 538.748C387.87 543.435 388.992 547.399 391.633 549.915Z" fill="#5262EE"/>
<path d="M403.008 516.799C402.715 516.765 402.444 516.628 402.243 516.412C402.043 516.196 401.926 515.916 401.913 515.622C400.943 494.241 396.281 480.689 396.208 480.526C396.154 480.372 396.131 480.21 396.14 480.047C396.149 479.885 396.19 479.726 396.261 479.579C396.331 479.433 396.43 479.301 396.552 479.193C396.673 479.084 396.815 479.001 396.969 478.947C397.123 478.893 397.286 478.87 397.449 478.88C397.611 478.889 397.771 478.93 397.918 479C398.065 479.071 398.196 479.17 398.305 479.291C398.414 479.412 398.497 479.554 398.551 479.707C398.751 480.27 403.382 493.743 404.368 515.482C404.375 515.645 404.351 515.807 404.295 515.96C404.239 516.113 404.154 516.253 404.044 516.373C403.934 516.493 403.801 516.591 403.654 516.659C403.506 516.728 403.346 516.767 403.183 516.774L403.008 516.799Z" fill="#262424"/>
<path d="M422.314 498.334C424.664 495.859 424.329 491.735 421.567 489.123C418.804 486.51 414.66 486.399 412.311 488.874C409.961 491.348 410.296 495.472 413.059 498.084C415.821 500.697 419.965 500.808 422.314 498.334Z" fill="white"/>
<path d="M417.098 501.279C415.254 501.057 413.532 500.243 412.191 498.96C410.652 497.528 409.7 495.577 409.519 493.485C409.419 492.484 409.536 491.474 409.863 490.523C410.19 489.572 410.719 488.703 411.414 487.975C412.109 487.248 412.954 486.679 413.89 486.307C414.826 485.936 415.831 485.77 416.838 485.823C418.936 485.911 420.931 486.755 422.455 488.198C423.979 489.64 424.929 491.585 425.129 493.671C425.231 494.67 425.116 495.679 424.792 496.63C424.468 497.58 423.942 498.449 423.251 499.178C422.559 499.907 421.718 500.478 420.785 500.853C419.851 501.227 418.848 501.396 417.843 501.349C417.581 501.33 417.332 501.307 417.098 501.279ZM417.247 488.338C417.085 488.319 416.92 488.3 416.754 488.281C416.098 488.243 415.441 488.348 414.83 488.59C414.219 488.831 413.669 489.203 413.217 489.68C412.765 490.156 412.423 490.725 412.215 491.347C412.006 491.968 411.937 492.628 412.01 493.28C412.148 494.755 412.826 496.127 413.915 497.134C414.982 498.167 416.392 498.77 417.877 498.827C418.533 498.866 419.19 498.761 419.802 498.52C420.413 498.279 420.965 497.907 421.417 497.431C421.869 496.955 422.212 496.386 422.421 495.763C422.63 495.141 422.7 494.481 422.626 493.829C422.488 492.354 421.81 490.981 420.721 489.975C419.77 489.069 418.552 488.495 417.247 488.338Z" fill="#262424"/>
<path d="M391.631 549.914L395.727 553.77L443.649 503.292C443.649 503.292 441.665 501.11 438.225 497.555L412.924 524.2C412.924 524.2 399.408 514.649 388.848 531.519C388.802 533.896 388.659 536.318 388.389 538.749C387.868 543.435 388.99 547.398 391.631 549.914Z" fill="white"/>
<path d="M395.584 555.016C395.318 554.986 395.069 554.87 394.874 554.687L390.78 550.814C387.884 548.074 386.591 543.746 387.156 538.629C387.419 536.364 387.561 533.952 387.608 531.507C387.613 531.283 387.678 531.065 387.797 530.875C391.439 525.059 395.843 521.593 400.889 520.583C406.289 519.487 410.833 521.564 412.728 522.627L437.334 496.711C437.449 496.589 437.588 496.492 437.742 496.425C437.896 496.358 438.062 496.323 438.23 496.322C438.398 496.321 438.564 496.355 438.719 496.42C438.873 496.485 439.013 496.581 439.13 496.701C442.55 500.232 444.565 502.451 444.585 502.471C444.796 502.702 444.912 503.004 444.909 503.317C444.905 503.63 444.784 503.929 444.568 504.156L396.646 554.634C396.512 554.777 396.346 554.886 396.161 554.953C395.976 555.019 395.779 555.041 395.584 555.016ZM392.49 549.015L395.683 552.031L441.954 503.29C441.203 502.48 439.933 501.128 438.235 499.358L413.832 525.062C413.627 525.278 413.35 525.413 413.053 525.442C412.756 525.471 412.458 525.392 412.215 525.219C412.164 525.213 407.262 521.815 401.355 523.013C397.103 523.874 393.312 526.86 390.094 531.893C390.034 534.291 389.882 536.644 389.633 538.887C389.132 543.208 390.176 546.807 392.489 548.975L392.49 549.015Z" fill="#262424"/>
<path d="M453.473 326.032L368.893 393.734L399.904 440.816C393.729 461.374 367.987 466.894 367.987 466.894C367.987 466.894 336.532 435.64 318.847 415.574C312.036 407.857 307.259 401.788 307.093 399.8C306.8 396.277 308.976 390.262 312.745 382.756C330.028 348.335 380.837 282.628 380.837 282.628C402.163 253.904 442.36 246.279 456.047 275.282C469.734 304.285 453.473 326.032 453.473 326.032Z" fill="#5262EE"/>
<path d="M327.81 402.214C327.49 404.993 326.509 407.655 324.951 409.978C323.392 412.302 321.299 414.22 318.848 415.574C312.037 407.857 307.26 401.788 307.094 399.8C306.801 396.277 308.977 390.262 312.746 382.756C317.303 383.397 321.43 385.791 324.245 389.427C327.06 393.062 328.339 397.652 327.81 402.214Z" fill="white"/>
<path d="M379.922 447.485C379.733 447.464 379.552 447.4 379.391 447.299C379.231 447.198 379.095 447.062 378.995 446.902L346.649 395.561C346.486 395.303 346.422 394.994 346.47 394.693C346.518 394.391 346.673 394.117 346.908 393.921L438.328 317.974C438.585 317.761 438.917 317.658 439.251 317.688C439.584 317.719 439.892 317.881 440.106 318.137C440.32 318.394 440.423 318.726 440.393 319.059C440.362 319.391 440.201 319.698 439.943 319.912L349.381 395.161L381.134 445.566C381.26 445.767 381.326 445.999 381.326 446.236C381.326 446.473 381.258 446.705 381.132 446.905C381.005 447.106 380.824 447.267 380.61 447.369C380.396 447.472 380.158 447.512 379.922 447.485Z" fill="#262424"/>
<path d="M449.037 323.676L448.923 323.662L439.788 321.754C439.593 321.713 439.41 321.627 439.255 321.502C439.099 321.377 438.976 321.217 438.894 321.036C434.211 310.736 423.245 288.62 423.127 288.399C422.978 288.1 422.954 287.753 423.061 287.436C423.168 287.12 423.396 286.858 423.696 286.709C423.997 286.561 424.344 286.537 424.661 286.644C424.979 286.751 425.241 286.979 425.39 287.279C425.497 287.498 436.088 308.83 440.922 319.412L449.434 321.191C449.751 321.258 450.029 321.444 450.212 321.711C450.395 321.977 450.469 322.303 450.418 322.622C450.367 322.941 450.195 323.228 449.938 323.424C449.681 323.62 449.359 323.71 449.037 323.676Z" fill="#262424"/>
<path d="M337.465 396.649C337.145 396.617 336.849 396.464 336.637 396.221C336.426 395.978 336.316 395.664 336.329 395.343C336.342 395.022 336.477 394.718 336.707 394.494C336.937 394.269 337.245 394.141 337.567 394.135L364.129 393.199C364.464 393.187 364.79 393.308 365.035 393.535C365.28 393.763 365.425 394.078 365.438 394.412C365.45 394.746 365.329 395.071 365.101 395.316C364.873 395.561 364.557 395.705 364.222 395.717L337.66 396.654L337.465 396.649Z" fill="#262424"/>
<path d="M363.071 456.774C362.739 456.735 362.435 456.566 362.227 456.304C362.019 456.042 361.924 455.709 361.963 455.377C362.001 455.045 362.17 454.742 362.432 454.534C362.695 454.327 363.029 454.232 363.362 454.271C364.077 454.354 380.849 455.668 389.942 438.306C390.019 438.159 390.124 438.029 390.252 437.923C390.379 437.817 390.526 437.737 390.685 437.688C390.843 437.638 391.01 437.621 391.175 437.636C391.34 437.651 391.501 437.698 391.648 437.775C391.795 437.852 391.926 437.957 392.032 438.084C392.138 438.211 392.219 438.358 392.268 438.516C392.318 438.675 392.335 438.841 392.32 439.006C392.305 439.171 392.258 439.331 392.181 439.478C382.26 458.374 363.294 456.788 363.107 456.766L363.071 456.774Z" fill="#262424"/>
<path d="M646.988 405.209L678.782 411.824L680.748 399.334L649.239 389.716L646.988 405.209Z" fill="white"/>
<path d="M678.638 413.058L678.524 413.045L646.73 406.43C646.418 406.368 646.142 406.188 645.958 405.929C645.775 405.67 645.697 405.35 645.742 405.036L647.993 389.543C648.019 389.366 648.083 389.197 648.181 389.047C648.278 388.896 648.407 388.769 648.559 388.673C648.71 388.578 648.881 388.516 649.058 388.492C649.236 388.468 649.417 388.482 649.588 388.534L681.097 398.152C681.383 398.24 681.628 398.428 681.786 398.682C681.945 398.935 682.007 399.237 681.961 399.532L679.989 412.021C679.938 412.333 679.77 412.614 679.519 412.806C679.268 412.999 678.953 413.089 678.638 413.058ZM648.383 404.234L677.756 410.345L679.359 400.2L650.266 391.316L648.383 404.234Z" fill="#262424"/>
<path d="M726.221 458.142L731.839 457.646L725.851 388.347C725.851 388.347 722.898 388.372 717.952 388.578C703.217 389.11 688.526 390.488 673.951 392.703L672.311 415.125C672.311 415.125 693.74 432.411 710.606 447.987C712.357 449.601 714.073 451.316 715.72 453.136C718.873 456.641 722.568 458.453 726.221 458.142Z" fill="#5262EE"/>
<path d="M708.001 427.948C707.768 427.92 707.547 427.827 707.365 427.679C690.711 414.194 677.458 408.663 677.327 408.607C677.022 408.482 676.779 408.241 676.652 407.937C676.525 407.634 676.524 407.292 676.649 406.988C676.774 406.683 677.016 406.441 677.32 406.315C677.624 406.188 677.966 406.187 678.271 406.312C678.821 406.537 691.985 412.035 708.928 425.754C709.139 425.922 709.29 426.155 709.356 426.416C709.423 426.677 709.402 426.953 709.297 427.201C709.192 427.45 709.008 427.657 708.775 427.792C708.541 427.926 708.269 427.981 708.001 427.948Z" fill="#262424"/>
<path d="M701.612 407.694C705.403 407.369 708.238 404.352 707.944 400.955C707.651 397.557 704.34 395.066 700.549 395.39C696.759 395.715 693.923 398.732 694.217 402.129C694.51 405.527 697.821 408.018 701.612 407.694Z" fill="white"/>
<path d="M699.921 408.898C698.445 408.73 697.041 408.17 695.853 407.278C695.044 406.686 694.37 405.928 693.876 405.055C693.382 404.183 693.08 403.215 692.99 402.217C692.638 398.159 695.986 394.53 700.454 394.136C704.922 393.742 708.84 396.756 709.195 400.832C709.551 404.907 706.199 408.519 701.731 408.913C701.129 408.969 700.522 408.964 699.921 408.898ZM701.941 396.639C701.514 396.59 701.083 396.584 700.655 396.621C697.553 396.887 695.219 399.308 695.428 402.018C695.494 402.672 695.699 403.305 696.03 403.874C696.361 404.443 696.809 404.935 697.346 405.317C698.542 406.195 700.021 406.602 701.498 406.458C704.6 406.192 706.934 403.772 706.725 401.061C706.503 398.706 704.472 396.932 701.941 396.639Z" fill="#262424"/>
<path d="M726.22 458.142L731.838 457.646L725.85 388.347C725.85 388.347 722.897 388.371 717.95 388.578L721.108 425.164C721.108 425.164 704.981 428.9 710.599 447.991C712.35 449.606 714.066 451.321 715.712 453.141C718.872 456.641 722.566 458.453 726.22 458.142Z" fill="white"/>
<path d="M724.158 459.343C720.884 458.964 717.625 457.111 714.79 453.981C713.263 452.278 711.557 450.576 709.76 448.916C709.594 448.763 709.474 448.569 709.411 448.353C707.471 441.769 707.803 436.183 710.399 431.75C713.175 427.004 717.74 424.985 719.788 424.282L716.715 388.705C716.7 388.538 716.72 388.37 716.772 388.211C716.824 388.052 716.908 387.905 717.019 387.78C717.13 387.654 717.265 387.552 717.416 387.48C717.568 387.409 717.732 387.368 717.9 387.361C722.812 387.156 725.811 387.131 725.839 387.134C726.152 387.132 726.454 387.248 726.685 387.457C726.916 387.667 727.06 387.956 727.088 388.266L733.076 457.566C733.091 457.728 733.073 457.892 733.024 458.048C732.975 458.204 732.895 458.348 732.79 458.473C732.685 458.598 732.556 458.701 732.41 458.776C732.265 458.851 732.106 458.896 731.943 458.909L726.324 459.405C725.602 459.458 724.876 459.437 724.158 459.343ZM711.714 447.335C713.474 448.973 715.131 450.646 716.65 452.326C719.579 455.535 722.941 457.188 726.124 456.914L730.504 456.539L724.734 389.623C723.633 389.645 721.77 389.693 719.321 389.787L722.347 425.072C722.372 425.369 722.289 425.665 722.113 425.906C721.938 426.147 721.681 426.317 721.39 426.384C721.339 426.378 715.553 427.819 712.529 433.024C710.346 436.771 710.08 441.59 711.714 447.335Z" fill="#262424"/>
<path d="M648.618 414.609L592.518 401.921C584.325 400.07 578.156 398.671 576.77 398.373C575.767 398.147 570.021 394.979 561.481 390.074C527.681 370.658 450.135 323.975 450.135 323.975C450.135 323.975 429.221 269.967 428.988 269.148C421.747 241.139 444.513 228.215 482.579 230.082C520.646 231.95 532.562 278.349 532.562 278.349L591.519 356.788L652.769 376.34C664.241 392.363 648.618 414.609 648.618 414.609Z" fill="#5262EE"/>
<path d="M449.993 325.204C449.76 325.181 449.538 325.095 449.351 324.954C449.164 324.812 449.021 324.622 448.936 324.404L435.335 289.201C435.215 288.889 435.223 288.541 435.359 288.235C435.495 287.929 435.747 287.69 436.06 287.569C436.372 287.449 436.721 287.457 437.027 287.593C437.334 287.729 437.574 287.98 437.695 288.293L451.32 323.487C451.401 323.69 451.428 323.911 451.398 324.128C451.367 324.344 451.281 324.55 451.147 324.723C451.013 324.896 450.837 325.032 450.634 325.116C450.432 325.2 450.211 325.231 449.993 325.204Z" fill="#262424"/>
<path d="M592.52 401.921C584.327 400.07 578.157 398.671 576.771 398.373C575.768 398.147 570.023 394.979 561.482 390.074C563.345 383.931 569.415 379.694 579.36 383.39C594.226 388.896 596.148 396.322 592.52 401.921Z" fill="white"/>
<path d="M642.971 387.491C642.903 387.489 642.834 387.481 642.767 387.467L587.042 371.649C586.815 371.584 586.61 371.457 586.452 371.282L494.933 270.392C494.708 270.143 494.591 269.816 494.607 269.481C494.624 269.147 494.773 268.833 495.022 268.608C495.271 268.384 495.599 268.267 495.934 268.284C496.269 268.301 496.584 268.45 496.809 268.698L588.077 369.319L643.459 385.023C643.772 385.102 644.043 385.298 644.216 385.57C644.389 385.843 644.451 386.172 644.388 386.488C644.326 386.805 644.144 387.085 643.88 387.272C643.617 387.459 643.291 387.537 642.971 387.491Z" fill="#262424"/>
<path d="M505.604 293.805C503.762 293.592 502.04 292.788 500.694 291.514L484.903 276.632C484.783 276.518 484.686 276.382 484.618 276.23C484.551 276.079 484.514 275.916 484.509 275.751C484.504 275.585 484.533 275.421 484.592 275.266C484.651 275.111 484.74 274.97 484.854 274.85C484.968 274.73 485.105 274.633 485.256 274.566C485.408 274.498 485.571 274.461 485.737 274.457C485.903 274.452 486.068 274.48 486.223 274.539C486.377 274.599 486.519 274.688 486.64 274.802L502.43 289.684C503.044 290.261 503.772 290.704 504.568 290.983C505.364 291.262 506.209 291.372 507.05 291.304L515.984 290.584C516.318 290.558 516.649 290.665 516.904 290.881C517.16 291.098 517.318 291.407 517.345 291.741C517.372 292.074 517.265 292.405 517.048 292.659C516.831 292.914 516.521 293.072 516.187 293.099L507.253 293.819C506.704 293.867 506.152 293.863 505.604 293.805Z" fill="#262424"/>
<path d="M641.465 410.238C641.225 410.211 640.998 410.115 640.81 409.963C640.623 409.81 640.483 409.607 640.408 409.378C640.333 409.149 640.325 408.903 640.386 408.669C640.447 408.436 640.574 408.225 640.751 408.061C651.449 398.185 645.399 379.296 645.341 379.106C645.259 378.796 645.299 378.467 645.452 378.185C645.605 377.903 645.859 377.69 646.164 377.59C646.469 377.489 646.801 377.508 647.092 377.643C647.384 377.778 647.613 378.018 647.732 378.316C648.009 379.151 654.353 398.929 642.463 409.912C642.33 410.035 642.172 410.128 642 410.184C641.827 410.24 641.645 410.259 641.465 410.238Z" fill="#262424"/>
<path d="M219.866 222.188L223.111 224.51L309.99 213.192L303.853 157.023L222.186 185.979L219.866 222.188Z" fill="#32AD67"/>
<path d="M271.501 190.54C271.501 190.54 247.211 215.27 223.111 224.527C222.336 224.661 221.559 224.766 220.775 224.83C206.754 226.073 192.725 216.285 197.686 199.098C197.686 199.073 197.689 199.048 197.694 199.024C202.984 180.94 230.763 174.916 230.763 174.916L265.944 166.56L271.501 190.54Z" fill="#32AD67"/>
<path d="M233.177 220.988C232.914 220.955 232.668 220.839 232.474 220.658C232.28 220.476 232.149 220.239 232.098 219.979C232.047 219.719 232.08 219.449 232.191 219.209C232.303 218.968 232.488 218.769 232.719 218.64C250.779 208.849 267.128 193.092 270.116 190.138L264.769 166.826C264.694 166.5 264.751 166.157 264.929 165.874C265.107 165.591 265.391 165.389 265.717 165.315C266.044 165.24 266.387 165.298 266.671 165.475C266.955 165.653 267.157 165.936 267.232 166.262L272.765 190.256C272.812 190.463 272.807 190.678 272.749 190.882C272.691 191.086 272.583 191.272 272.434 191.423C272.251 191.608 254.189 209.893 233.94 220.859C233.706 220.981 233.439 221.026 233.177 220.988Z" fill="#262424"/>
<path d="M220.784 224.814C206.763 226.057 192.733 216.269 197.694 199.082C197.694 199.057 197.697 199.032 197.703 199.008C200.972 197.136 204.66 196.109 208.429 196.022C219.307 195.7 228.28 202.629 228.566 211.512C228.735 216.898 225.647 221.756 220.784 224.814Z" fill="white"/>
<path d="M262.108 195.012C261.874 194.986 261.651 194.894 261.466 194.748C251.371 186.736 252.376 171.971 252.426 171.346C252.451 171.012 252.608 170.702 252.862 170.484C253.116 170.266 253.446 170.158 253.78 170.183C254.114 170.208 254.425 170.365 254.643 170.618C254.862 170.872 254.971 171.201 254.946 171.535C254.93 171.676 254.01 185.607 263.041 192.773C263.257 192.943 263.411 193.179 263.48 193.445C263.549 193.711 263.53 193.992 263.424 194.245C263.319 194.499 263.133 194.711 262.895 194.849C262.658 194.987 262.382 195.045 262.108 195.012Z" fill="#262424"/>
<path d="M262.111 187.798C262.118 188.502 262.378 189.179 262.845 189.707C263.312 190.234 263.954 190.576 264.653 190.67C264.976 190.71 265.303 190.68 265.614 190.584C265.924 190.487 266.21 190.326 266.453 190.11C266.696 189.894 266.89 189.629 267.022 189.333C267.153 189.036 267.22 188.715 267.218 188.39C267.211 187.687 266.95 187.009 266.483 186.482C266.016 185.954 265.374 185.612 264.676 185.519C264.353 185.479 264.025 185.508 263.715 185.605C263.405 185.701 263.118 185.863 262.876 186.078C262.633 186.294 262.439 186.559 262.307 186.856C262.175 187.152 262.108 187.474 262.111 187.798Z" fill="white"/>
<path d="M511.696 244.404C511.394 247.077 510.846 249.717 510.057 252.289C503.772 272.76 484.1 286.725 447.245 293.051C410.391 299.376 371.849 289.958 371.849 289.958C371.849 289.958 336.329 245.212 314.036 220.697C291.743 196.182 286.84 169.283 301.272 152.695C301.272 152.695 323.9 144.828 352.678 143.925C381.456 143.022 395.121 144.257 408.179 150.719C421.237 157.18 505.098 218.484 505.098 218.484C505.098 218.484 510.375 224.755 511.657 235.315C507.406 233.1 498.301 228.646 496.343 230.456C494.385 232.267 506.267 240.733 511.696 244.404Z" fill="#32AD67"/>
<path d="M303.847 209.03C303.662 209.009 303.484 208.948 303.325 208.85C303.166 208.752 303.031 208.62 302.93 208.464C290.244 188.926 288.372 168.967 297.873 155.078C298.062 154.802 298.354 154.612 298.683 154.55C299.013 154.488 299.354 154.56 299.631 154.749C299.908 154.937 300.099 155.228 300.161 155.557C300.223 155.886 300.151 156.227 299.962 156.503C291.049 169.536 292.955 188.455 305.048 207.109C305.173 207.309 305.24 207.54 305.24 207.776C305.24 208.012 305.174 208.244 305.049 208.444C304.924 208.644 304.745 208.805 304.532 208.909C304.32 209.012 304.083 209.054 303.847 209.03Z" fill="#262424"/>
<path d="M502.751 228.824C502.487 228.793 502.239 228.68 502.043 228.501C501.847 228.321 501.713 228.085 501.659 227.825C501.278 226.015 500.78 224.232 500.168 222.487C500.058 222.17 500.078 221.822 500.225 221.519C500.371 221.217 500.632 220.986 500.95 220.876C501.268 220.766 501.616 220.786 501.919 220.933C502.222 221.079 502.454 221.34 502.564 221.657C503.213 223.513 503.741 225.409 504.143 227.332C504.181 227.528 504.173 227.729 504.118 227.92C504.063 228.111 503.964 228.287 503.828 228.432C503.692 228.578 503.524 228.689 503.337 228.757C503.15 228.825 502.949 228.848 502.751 228.824Z" fill="#262424"/>
<path d="M373.552 282.73C373.218 282.703 372.908 282.545 372.691 282.291C372.474 282.036 372.366 281.706 372.393 281.373C372.419 281.039 372.577 280.73 372.832 280.513C373.087 280.296 373.418 280.189 373.752 280.216C374.49 280.25 447.76 283.325 470.923 274.413C487.011 268.245 498.135 257.07 501.437 243.822C501.477 243.662 501.549 243.51 501.647 243.377C501.746 243.244 501.87 243.131 502.013 243.046C502.155 242.961 502.313 242.904 502.477 242.88C502.641 242.856 502.809 242.864 502.97 242.904C503.131 242.944 503.282 243.016 503.416 243.114C503.549 243.213 503.662 243.337 503.748 243.479C503.833 243.621 503.89 243.778 503.914 243.942C503.939 244.106 503.931 244.273 503.891 244.434C500.392 258.485 488.708 270.272 471.835 276.769C448.184 285.871 376.675 282.874 373.643 282.74L373.552 282.73Z" fill="#262424"/>
<path d="M351.917 154.931C351.108 158.846 349.447 162.535 347.051 165.738C344.655 168.941 341.583 171.58 338.053 173.467C335.374 166.814 330.157 158.834 330.157 158.834C327.376 164.917 326.757 172.334 326.903 175.634C313.713 174.724 309.86 163.023 309.86 163.023C308.948 150.704 317.468 139.572 326.411 138.084C346.205 134.813 351.917 154.931 351.917 154.931Z" fill="white"/>
<path d="M325.756 176.775C312.756 175.267 308.746 163.536 308.708 163.417C308.677 163.322 308.657 163.223 308.65 163.123C307.649 149.543 317.114 138.388 326.233 136.869C346.858 133.431 353.053 154.385 353.115 154.593C353.169 154.781 353.178 154.978 353.14 155.17C352.29 159.256 350.556 163.106 348.059 166.453C345.562 169.799 342.363 172.561 338.684 174.544C338.53 174.63 338.359 174.681 338.183 174.696C338.007 174.71 337.83 174.687 337.664 174.627C337.498 174.568 337.346 174.473 337.219 174.351C337.092 174.228 336.993 174.08 336.928 173.916C335.145 169.456 332.131 164.309 330.428 161.535C328.869 166.047 328.106 170.795 328.174 175.569C328.182 175.742 328.154 175.914 328.092 176.075C328.03 176.236 327.934 176.383 327.812 176.505C327.689 176.627 327.542 176.722 327.381 176.784C327.219 176.846 327.046 176.873 326.873 176.864C326.472 176.852 326.108 176.816 325.756 176.775ZM311.111 162.778C311.569 164.036 315.117 172.861 325.668 174.268C325.721 170.584 326.447 164.028 329.053 158.322C329.146 158.121 329.291 157.949 329.474 157.823C329.656 157.696 329.869 157.621 330.09 157.605C330.311 157.588 330.533 157.631 330.732 157.729C330.931 157.826 331.1 157.975 331.222 158.16C334.03 162.484 336.521 167.004 338.677 171.685C341.699 169.854 344.318 167.428 346.373 164.556C348.428 161.684 349.877 158.425 350.633 154.977C349.848 152.515 344.027 136.419 326.64 139.31C318.624 140.647 310.321 150.949 311.111 162.778Z" fill="#262424"/>
<path d="M426.554 234.867C423.651 241.302 419.048 246.479 412.134 249.321C406.222 251.752 399.709 251.134 393.085 248.598C366.814 238.543 338.721 198.337 338.721 198.337L347.068 175.953L380.736 192.294C375.577 168.642 375.802 151.187 389.633 149.646C401.64 148.313 413.543 155.76 421.381 169.398C427.402 179.813 435.976 213.979 426.554 234.867Z" fill="#32AD67"/>
<path d="M426.553 234.867C423.65 241.302 419.047 246.479 412.133 249.321C406.221 251.752 399.708 251.134 393.084 248.598C390.095 240.4 388.144 229.161 397.448 223.956C407.214 218.494 421.06 224.909 426.553 234.867Z" fill="white"/>
<path d="M401.086 251.942C398.188 251.588 395.346 250.873 392.626 249.813C366.295 239.735 338.837 200.749 337.677 199.094C337.56 198.926 337.485 198.733 337.46 198.53C337.434 198.327 337.459 198.121 337.531 197.929L345.878 175.545C345.939 175.38 346.034 175.23 346.157 175.104C346.28 174.978 346.428 174.879 346.592 174.814C346.755 174.748 346.931 174.718 347.107 174.724C347.283 174.731 347.456 174.774 347.614 174.851L378.957 190.062C375.166 171.585 375.545 159.99 380.054 153.683C382.242 150.643 385.414 148.876 389.48 148.424C402.009 147.007 414.332 154.652 422.466 168.807C425.4 173.91 429.169 184.942 430.982 198.071C432.427 208.569 433.029 223.56 427.675 235.41C424.407 242.658 419.343 247.741 412.581 250.515C408.935 251.966 404.977 252.457 401.086 251.942ZM340.139 198.151C343.608 202.944 369.561 238.248 393.536 247.422C400.375 250.041 406.471 250.289 411.652 248.158C417.782 245.638 422.404 240.991 425.405 234.349C434.649 213.854 426.024 179.98 420.309 170.054C412.697 156.798 401.288 149.65 389.8 150.923C386.427 151.3 383.92 152.68 382.145 155.148C377.914 161.034 377.865 173.103 381.999 192.051C382.049 192.282 382.033 192.522 381.953 192.744C381.873 192.966 381.732 193.162 381.546 193.308C381.36 193.454 381.136 193.545 380.901 193.57C380.666 193.595 380.428 193.554 380.215 193.451L347.785 177.695L340.139 198.151Z" fill="#262424"/>
<path d="M404.797 217.462C404.562 217.438 404.339 217.348 404.152 217.204C403.966 217.06 403.823 216.866 403.742 216.645C398.533 202.548 383.391 196.155 383.237 196.091C383.084 196.028 382.944 195.935 382.826 195.819C382.709 195.702 382.615 195.563 382.551 195.41C382.487 195.257 382.454 195.093 382.454 194.927C382.453 194.762 382.485 194.598 382.549 194.444C382.612 194.291 382.704 194.152 382.821 194.034C382.938 193.917 383.077 193.824 383.231 193.76C383.384 193.696 383.548 193.663 383.714 193.663C383.88 193.662 384.045 193.695 384.198 193.758C384.862 194.03 400.511 200.614 406.109 215.772C406.183 215.972 406.205 216.189 406.172 216.4C406.14 216.612 406.054 216.811 405.923 216.98C405.792 217.149 405.619 217.282 405.422 217.367C405.225 217.451 405.01 217.484 404.797 217.462Z" fill="#262424"/>
<path d="M347.3 204.893C347.031 204.863 346.778 204.746 346.58 204.561C346.382 204.376 346.249 204.132 346.2 203.866C346.152 203.599 346.19 203.324 346.311 203.082C346.431 202.839 346.627 202.642 346.868 202.519C356.562 197.577 357.333 183.692 357.338 183.554C357.354 183.221 357.502 182.907 357.749 182.682C357.997 182.457 358.324 182.34 358.658 182.356C358.993 182.372 359.307 182.52 359.533 182.767C359.758 183.015 359.876 183.341 359.86 183.675C359.833 184.303 359.025 199.154 348.016 204.769C347.795 204.88 347.546 204.923 347.3 204.893Z" fill="#262424"/>
<path d="M345.47 200.044C346.877 200.207 348.15 199.201 348.312 197.796C348.475 196.392 347.467 195.122 346.06 194.958C344.652 194.795 343.38 195.801 343.217 197.205C343.054 198.61 344.063 199.88 345.47 200.044Z" fill="white"/>
<path d="M297.75 150.903C302.61 161.705 310.385 173.999 323.102 167.44C338.251 159.641 344.801 144.923 339.867 129.698C334.933 114.474 325.05 108.255 307.428 116.053C305.931 116.722 304.492 117.515 303.127 118.424C293.597 124.733 291.226 135.156 295.288 145.108C296.008 146.879 296.824 148.867 297.75 150.903Z" fill="white"/>
<path d="M314.72 170.428C313.776 170.318 312.846 170.104 311.948 169.79C304.462 167.2 299.619 158.03 296.62 151.415C295.708 149.358 294.842 147.306 294.126 145.547C289.653 134.532 292.815 123.73 302.427 117.361C303.854 116.423 305.357 115.605 306.92 114.916C315.595 111.072 322.905 110.422 328.63 112.974C334.148 115.434 338.323 120.934 341.041 129.336C346.154 145.097 339.33 160.495 323.667 168.561C320.609 170.135 317.586 170.76 314.72 170.428ZM323.174 114.052C318.873 113.553 313.771 114.603 307.927 117.19C306.49 117.824 305.109 118.575 303.796 119.437C295.225 125.112 292.398 134.758 296.424 144.62C297.164 146.428 297.962 148.374 298.883 150.398C301.692 156.618 306.182 165.156 312.765 167.452C315.816 168.517 319.007 168.176 322.527 166.34C337.055 158.843 343.396 144.628 338.677 130.083C336.13 122.292 332.534 117.445 327.619 115.25C326.207 114.627 324.708 114.222 323.174 114.052Z" fill="#262424"/>
<path d="M345.576 130.963C344.782 133.7 343.752 136.363 342.496 138.922L334.605 142.104L330.978 136.983C330.978 136.983 325.786 138.459 323.574 135.367C323.52 135.298 323.471 135.225 323.427 135.149C322.777 134.11 320.065 129.428 318.191 121.342C318.191 121.342 307.714 130.853 301.254 133.788C298.935 134.845 295.814 134.879 292.765 134.439C286.663 133.6 279.233 126.608 278.217 120.545L278.196 120.428C276.81 111.509 283.174 115.886 283.174 115.886C283.174 115.886 282.159 108.669 286.257 106.762C290.354 104.856 295.177 110.225 295.177 110.225C302.727 105.591 311.082 102.414 319.807 100.857C337.136 97.8742 336.829 110.579 336.829 110.579C336.829 110.579 350.267 110.445 345.576 130.963Z" fill="#262424"/>
<path d="M336.066 140.655C333.249 134.544 335.744 127.171 341.847 124.327C343.138 123.717 344.535 123.359 345.961 123.272C354.536 122.768 358.598 141.742 338.882 146.767L336.066 140.655Z" fill="white"/>
<path d="M338.71 148.188C338.378 148.148 338.071 147.994 337.84 147.752C337.61 147.511 337.472 147.196 337.449 146.864C337.426 146.531 337.52 146.201 337.716 145.93C337.911 145.66 338.195 145.466 338.518 145.382C349.385 142.625 352.3 135.64 351.498 130.502C350.95 126.995 348.658 124.549 346.035 124.704C344.789 124.78 343.571 125.093 342.443 125.624C337.117 128.106 334.836 134.584 337.358 140.065C337.436 140.236 337.481 140.42 337.488 140.608C337.495 140.796 337.465 140.983 337.4 141.16C337.335 141.336 337.235 141.498 337.107 141.636C336.979 141.773 336.825 141.885 336.654 141.963C336.483 142.042 336.298 142.086 336.11 142.093C335.922 142.1 335.734 142.07 335.557 142.005C335.381 141.94 335.219 141.841 335.08 141.713C334.942 141.585 334.831 141.431 334.752 141.261C331.573 134.361 334.476 126.186 341.225 123.038C342.68 122.353 344.253 121.951 345.859 121.854C349.981 121.615 353.54 125.04 354.32 130.072C355.386 136.893 351.13 145.129 339.219 148.161C339.052 148.2 338.88 148.209 338.71 148.188Z" fill="#262424"/>
<path d="M314.429 159.449L299.771 157.749L298.833 165.841L313.49 167.541L314.429 159.449Z" fill="white"/>
<path d="M313.348 168.776L298.691 167.076C298.364 167.038 298.066 166.872 297.862 166.615C297.657 166.358 297.564 166.03 297.602 165.704L298.541 157.607C298.579 157.281 298.745 156.983 299.003 156.779C299.26 156.576 299.588 156.483 299.915 156.521L314.572 158.221C314.899 158.258 315.197 158.424 315.401 158.681C315.605 158.939 315.699 159.266 315.661 159.592L314.722 167.684C314.704 167.846 314.654 168.003 314.575 168.146C314.497 168.288 314.39 168.414 314.262 168.515C314.135 168.617 313.988 168.692 313.831 168.737C313.674 168.782 313.51 168.795 313.348 168.776ZM300.213 164.756L312.402 166.17L313.055 160.541L300.866 159.127L300.213 164.756Z" fill="#262424"/>
<path d="M313.849 164.455L299.191 162.755L298.833 165.841L313.491 167.541L313.849 164.455Z" fill="white"/>
<path d="M313.349 168.776L298.692 167.076C298.365 167.038 298.067 166.872 297.863 166.615C297.659 166.358 297.565 166.03 297.603 165.704L297.961 162.618C297.999 162.292 298.165 161.995 298.422 161.791C298.68 161.587 299.008 161.494 299.335 161.532L313.992 163.232C314.319 163.27 314.617 163.436 314.821 163.693C315.025 163.95 315.119 164.278 315.081 164.604L314.723 167.69C314.685 168.016 314.519 168.314 314.261 168.517C314.004 168.721 313.676 168.814 313.349 168.776ZM300.215 164.756L312.403 166.17L312.476 165.547L300.287 164.133L300.215 164.756Z" fill="#262424"/>
<path d="M343.417 186.715L307.083 185.869L317.464 147.692C317.753 146.198 318.564 144.856 319.752 143.903C320.94 142.95 322.429 142.449 323.952 142.488C325.476 142.527 326.937 143.104 328.076 144.117C329.214 145.129 329.956 146.511 330.17 148.018L343.417 186.715Z" fill="white"/>
<path d="M306.906 187.123C306.728 187.103 306.557 187.044 306.404 186.952C306.251 186.859 306.119 186.735 306.019 186.587C305.919 186.439 305.852 186.271 305.823 186.094C305.793 185.918 305.803 185.738 305.85 185.566L316.257 147.408C316.603 145.637 317.565 144.044 318.972 142.911C320.38 141.778 322.143 141.177 323.952 141.214C325.76 141.251 327.498 141.923 328.859 143.113C330.22 144.303 331.117 145.933 331.392 147.718L344.562 186.331C344.627 186.52 344.646 186.722 344.616 186.919C344.586 187.117 344.509 187.304 344.391 187.465C344.273 187.626 344.117 187.756 343.938 187.844C343.758 187.932 343.56 187.976 343.36 187.971L307.026 187.125L306.913 187.112L306.906 187.123ZM324.392 143.761C323.088 143.61 321.775 143.958 320.717 144.734C319.66 145.51 318.936 146.656 318.691 147.943C318.687 147.977 318.683 148.011 318.679 148.045L308.675 184.717L341.647 185.482L329.02 148.435C328.992 148.355 328.973 148.272 328.962 148.188C328.799 147.049 328.261 145.997 327.434 145.195C326.607 144.394 325.537 143.89 324.392 143.761Z" fill="#262424"/>
<path d="M322.874 211.449C333.394 212.669 342.91 205.147 344.128 194.648C345.345 184.149 337.804 174.649 327.284 173.428C316.763 172.208 307.247 179.73 306.029 190.229C304.812 200.728 312.353 210.229 322.874 211.449Z" fill="white"/>
<path d="M322.73 212.683C318.717 212.22 314.931 210.58 311.852 207.97C308.772 205.359 306.537 201.896 305.429 198.019C304.321 194.142 304.389 190.024 305.626 186.187C306.863 182.35 309.213 178.965 312.378 176.462C315.543 173.958 319.382 172.448 323.408 172.123C327.434 171.797 331.467 172.671 334.997 174.633C338.527 176.595 341.395 179.557 343.238 183.145C345.082 186.733 345.818 190.786 345.353 194.79C344.725 200.155 341.99 205.051 337.75 208.406C333.509 211.76 328.108 213.298 322.73 212.683ZM327.141 174.657C323.617 174.249 320.051 174.892 316.894 176.506C313.737 178.12 311.131 180.632 309.406 183.725C307.681 186.817 306.913 190.352 307.2 193.881C307.488 197.41 308.817 200.775 311.021 203.551C313.224 206.327 316.203 208.388 319.579 209.475C322.956 210.562 326.579 210.626 329.991 209.657C333.403 208.689 336.45 206.733 338.747 204.036C341.044 201.339 342.488 198.022 342.896 194.505C343.437 189.791 342.082 185.053 339.128 181.333C336.175 177.612 331.864 175.211 327.141 174.657Z" fill="#262424"/>
<path d="M323.715 204.172C330.209 204.925 336.082 200.283 336.834 193.802C337.585 187.322 332.931 181.458 326.437 180.705C319.944 179.952 314.07 184.595 313.319 191.075C312.567 197.555 317.222 203.419 323.715 204.172Z" fill="white"/>
<path d="M323.574 205.407C321.005 205.109 318.582 204.057 316.611 202.385C314.64 200.713 313.21 198.495 312.502 196.013C311.793 193.53 311.838 190.894 312.631 188.438C313.424 185.981 314.929 183.815 316.956 182.213C318.983 180.611 321.44 179.645 324.018 179.437C326.595 179.229 329.177 179.789 331.437 181.045C333.696 182.302 335.532 184.198 336.712 186.495C337.892 188.793 338.363 191.387 338.066 193.951C337.663 197.387 335.911 200.522 333.194 202.67C330.477 204.817 327.018 205.802 323.574 205.407ZM326.296 181.94C324.215 181.698 322.109 182.078 320.246 183.031C318.382 183.984 316.843 185.467 315.824 187.293C314.805 189.12 314.352 191.206 314.522 193.29C314.692 195.374 315.477 197.361 316.778 199C318.079 200.639 319.837 201.856 321.831 202.498C323.825 203.14 325.964 203.177 327.979 202.605C329.993 202.034 331.792 200.879 333.149 199.286C334.505 197.694 335.357 195.735 335.598 193.659C335.917 190.875 335.116 188.079 333.372 185.882C331.629 183.685 329.084 182.268 326.296 181.94Z" fill="#262424"/>
<path d="M265.648 177.694L301.21 185.188L299.813 145.621C299.873 144.101 299.391 142.609 298.452 141.409C297.514 140.21 296.18 139.381 294.688 139.071C293.195 138.76 291.641 138.987 290.301 139.712C288.961 140.437 287.923 141.613 287.37 143.03L265.648 177.694Z" fill="white"/>
<path d="M301.062 186.445L300.948 186.432L265.386 178.938C265.19 178.897 265.007 178.809 264.853 178.682C264.698 178.556 264.577 178.393 264.498 178.209C264.42 178.026 264.388 177.826 264.404 177.627C264.42 177.428 264.484 177.235 264.591 177.066L286.251 142.493C286.941 140.843 288.187 139.486 289.774 138.657C291.361 137.827 293.189 137.578 294.942 137.951C296.694 138.325 298.261 139.298 299.371 140.702C300.482 142.106 301.065 143.853 301.021 145.641L302.418 185.162C302.426 185.338 302.395 185.514 302.329 185.678C302.262 185.842 302.161 185.99 302.033 186.111C301.904 186.233 301.751 186.326 301.584 186.383C301.416 186.441 301.238 186.462 301.062 186.445ZM267.639 176.869L299.911 183.671L298.567 145.683C298.571 145.649 298.575 145.615 298.579 145.581C298.634 144.351 298.249 143.141 297.492 142.168C296.736 141.194 295.657 140.521 294.449 140.268C293.241 140.016 291.983 140.2 290.899 140.789C289.816 141.377 288.977 142.332 288.534 143.481C288.504 143.56 288.466 143.637 288.421 143.709L267.639 176.869Z" fill="#262424"/>
<path d="M279.954 206.471C290.474 207.691 299.99 200.169 301.208 189.67C302.426 179.171 294.884 169.67 284.364 168.45C273.843 167.23 264.327 174.752 263.109 185.251C261.892 195.75 269.433 205.25 279.954 206.471Z" fill="white"/>
<path d="M279.807 207.705C275.794 207.24 272.01 205.597 268.932 202.986C265.854 200.374 263.621 196.911 262.514 193.034C261.408 189.156 261.478 185.039 262.717 181.203C263.955 177.366 266.305 173.983 269.471 171.481C272.636 168.979 276.474 167.47 280.5 167.145C284.526 166.821 288.558 167.695 292.087 169.657C295.616 171.619 298.484 174.581 300.327 178.169C302.17 181.757 302.905 185.809 302.441 189.813C301.812 195.18 299.076 200.078 294.833 203.432C290.59 206.786 285.186 208.323 279.807 207.705ZM284.217 169.679C280.693 169.27 277.127 169.913 273.971 171.527C270.814 173.141 268.208 175.653 266.483 178.746C264.757 181.839 263.99 185.373 264.277 188.902C264.564 192.431 265.894 195.796 268.097 198.572C270.301 201.348 273.279 203.41 276.656 204.497C280.033 205.584 283.656 205.647 287.068 204.679C290.48 203.711 293.527 201.754 295.824 199.057C298.121 196.36 299.565 193.044 299.973 189.527C300.513 184.812 299.158 180.075 296.205 176.354C293.251 172.633 288.94 170.233 284.217 169.679Z" fill="#262424"/>
<path d="M280.797 199.194C287.291 199.947 293.164 195.304 293.916 188.824C294.667 182.344 290.013 176.48 283.519 175.727C277.026 174.974 271.152 179.616 270.401 186.097C269.649 192.577 274.304 198.441 280.797 199.194Z" fill="white"/>
<path d="M280.654 200.428C278.085 200.13 275.662 199.079 273.691 197.407C271.72 195.735 270.29 193.517 269.582 191.035C268.873 188.552 268.918 185.916 269.711 183.46C270.504 181.003 272.009 178.837 274.036 177.235C276.063 175.633 278.52 174.667 281.098 174.459C283.675 174.251 286.257 174.811 288.517 176.067C290.776 177.323 292.612 179.22 293.792 181.517C294.972 183.814 295.443 186.409 295.146 188.973C294.743 192.409 292.991 195.544 290.274 197.692C287.557 199.839 284.098 200.823 280.654 200.428ZM283.376 176.961C281.295 176.72 279.189 177.1 277.326 178.053C275.462 179.006 273.923 180.489 272.904 182.315C271.885 184.141 271.432 186.228 271.602 188.312C271.772 190.395 272.557 192.382 273.858 194.021C275.159 195.66 276.917 196.878 278.911 197.52C280.905 198.161 283.044 198.199 285.059 197.627C287.073 197.055 288.872 195.9 290.229 194.308C291.585 192.715 292.437 190.757 292.678 188.681C292.997 185.897 292.196 183.1 290.453 180.904C288.709 178.707 286.164 177.289 283.376 176.961Z" fill="#262424"/>
<path d="M323.396 157.149C323.396 157.149 315.739 154.947 321.6 151.018C327.461 147.09 338.431 150.342 340.665 155.864C340.665 155.864 346.748 156.57 350.568 165.879C353.392 172.767 349.615 179.055 345.195 184.195C344.079 185.483 342.826 184.787 342.765 183.081C340.667 177.81 340.284 171.154 333.325 170.267C322.433 168.877 318.975 165.716 323.396 157.149Z" fill="white"/>
<path d="M343.774 186.096C343.61 186.077 343.448 186.039 343.293 185.983C342.777 185.764 342.338 185.398 342.029 184.932C341.72 184.465 341.556 183.919 341.555 183.36C341.144 182.296 340.795 181.188 340.454 180.116C339.1 175.821 337.932 172.11 333.189 171.502C326.128 170.597 322.478 169.003 320.984 166.167C319.862 164.034 320.08 161.367 321.679 157.84C320.31 157.245 318.469 156.119 318.188 154.324C317.949 152.816 318.866 151.355 320.911 149.986C324.079 147.862 328.756 147.452 333.422 148.871C337.232 150.031 340.211 152.213 341.547 154.778C343.41 155.275 348.426 157.298 351.735 165.406C355.007 173.39 350.114 180.421 346.149 185.012C345.873 185.374 345.512 185.662 345.098 185.851C344.684 186.041 344.229 186.125 343.774 186.096ZM329.772 150.635C326.89 150.3 324.182 150.79 322.292 152.063C320.989 152.933 320.585 153.586 320.64 153.954C320.755 154.702 322.546 155.622 323.742 155.967C323.918 156.019 324.08 156.109 324.217 156.23C324.353 156.351 324.462 156.501 324.534 156.669C324.606 156.837 324.641 157.018 324.634 157.201C324.628 157.383 324.582 157.562 324.499 157.725C322.778 161.055 322.346 163.444 323.18 165.033C324.221 167.013 327.505 168.295 333.5 169.065C339.825 169.873 341.417 174.936 342.82 179.397C343.165 180.488 343.517 181.619 343.932 182.654C343.986 182.787 344.016 182.928 344.021 183.072C344.024 183.242 344.055 183.41 344.113 183.57C344.172 183.522 344.226 183.469 344.275 183.411C349.901 176.901 351.542 171.485 349.444 166.363C345.989 157.928 340.739 157.135 340.54 157.112C340.321 157.083 340.114 156.997 339.939 156.863C339.764 156.729 339.627 156.551 339.542 156.348C338.677 154.233 336.057 152.282 332.707 151.262C331.75 150.965 330.768 150.755 329.772 150.635Z" fill="#262424"/>
<path d="M324.847 157.788C324.568 157.753 324.308 157.626 324.11 157.427C323.911 157.227 323.785 156.968 323.751 156.689C323.717 156.409 323.778 156.127 323.923 155.887C324.069 155.646 324.291 155.461 324.554 155.361C328.751 153.941 333.237 153.59 337.606 154.338C337.77 154.366 337.926 154.426 338.067 154.515C338.207 154.603 338.329 154.718 338.425 154.853C338.521 154.989 338.589 155.141 338.626 155.303C338.662 155.465 338.667 155.632 338.639 155.795C338.611 155.959 338.551 156.115 338.462 156.255C338.374 156.395 338.259 156.516 338.123 156.612C337.988 156.708 337.834 156.776 337.673 156.812C337.511 156.849 337.343 156.853 337.179 156.825C333.261 156.175 329.244 156.481 325.471 157.717C325.272 157.793 325.058 157.817 324.847 157.788Z" fill="#262424"/>
<path d="M290.921 155.667C290.921 155.667 298.88 155.276 294.073 150.11C289.267 144.944 277.851 145.594 274.388 150.46C274.388 150.46 268.305 149.755 262.456 157.943C258.13 164.001 260.367 170.987 263.494 177.003C264.285 178.512 265.665 178.121 266.114 176.474C269.362 171.824 271.26 165.432 278.237 166.161C289.174 167.309 293.264 165.018 290.921 155.667Z" fill="white"/>
<path d="M264.461 179.181C264.011 179.105 263.586 178.92 263.225 178.641C262.864 178.361 262.578 177.997 262.392 177.581C259.566 172.203 256.427 164.263 261.442 157.217C266.516 150.11 271.867 149.244 273.793 149.203C275.68 147.012 279.085 145.57 283.054 145.313C287.921 145 292.379 146.475 294.977 149.262C296.655 151.063 297.213 152.695 296.635 154.108C295.952 155.785 293.895 156.459 292.432 156.731C293.187 160.532 292.788 163.178 291.203 164.997C289.099 167.416 285.18 168.132 278.1 167.397C273.344 166.902 271.357 170.247 269.057 174.118C268.484 175.085 267.891 176.084 267.242 177.024C267.114 177.568 266.828 178.063 266.421 178.446C266.013 178.83 265.502 179.085 264.95 179.18C264.788 179.199 264.624 179.199 264.461 179.181ZM274.243 151.718C274.033 151.693 268.756 151.276 263.468 158.686C260.255 163.186 260.612 168.835 264.598 176.465C264.633 176.532 264.673 176.597 264.719 176.657C264.813 176.515 264.882 176.358 264.923 176.193C264.961 176.054 265.023 175.924 265.106 175.807C265.746 174.894 266.348 173.873 266.933 172.891C269.32 168.869 272.03 164.299 278.371 164.966C284.383 165.589 287.873 165.098 289.34 163.403C290.509 162.058 290.634 159.634 289.729 155.988C289.685 155.81 289.681 155.625 289.717 155.445C289.754 155.266 289.829 155.097 289.938 154.95C290.048 154.803 290.188 154.682 290.35 154.596C290.512 154.509 290.69 154.46 290.873 154.45C292.117 154.388 294.065 153.902 294.354 153.201C294.483 152.877 294.243 152.126 293.179 150.982C291.135 148.77 287.308 147.557 283.235 147.819C279.758 148.047 276.73 149.361 275.418 151.206C275.289 151.387 275.113 151.53 274.909 151.621C274.706 151.711 274.481 151.745 274.26 151.72L274.243 151.718Z" fill="#262424"/>
<path d="M289.37 155.957C289.172 155.932 288.983 155.861 288.819 155.75C285.429 153.681 281.588 152.464 277.625 152.202C277.29 152.181 276.977 152.029 276.755 151.778C276.533 151.527 276.42 151.199 276.44 150.865C276.46 150.531 276.613 150.219 276.864 149.997C277.115 149.775 277.444 149.662 277.779 149.683C282.203 149.955 286.49 151.324 290.251 153.666C290.487 153.826 290.662 154.06 290.747 154.332C290.833 154.603 290.824 154.896 290.722 155.161C290.62 155.427 290.43 155.65 290.185 155.794C289.939 155.939 289.652 155.996 289.37 155.957Z" fill="#262424"/>
<path d="M251.316 420.09C251.067 420.09 250.829 419.991 250.653 419.816C250.478 419.64 250.379 419.403 250.379 419.155V414.935C250.379 414.687 250.478 414.449 250.653 414.274C250.829 414.099 251.067 414 251.316 414C251.564 414 251.803 414.099 251.978 414.274C252.154 414.449 252.253 414.687 252.253 414.935V419.155C252.253 419.403 252.154 419.64 251.978 419.816C251.803 419.991 251.564 420.09 251.316 420.09Z" fill="#32AD67"/>
<path d="M257.694 422.237H253.462C253.214 422.237 252.976 422.138 252.8 421.963C252.624 421.787 252.525 421.549 252.525 421.301C252.525 421.053 252.624 420.815 252.8 420.64C252.976 420.465 253.214 420.366 253.462 420.366H257.694C257.942 420.366 258.18 420.465 258.356 420.64C258.532 420.815 258.631 421.053 258.631 421.301C258.631 421.549 258.532 421.787 258.356 421.963C258.18 422.138 257.942 422.237 257.694 422.237Z" fill="#32AD67"/>
<path d="M251.316 428.603C251.067 428.603 250.829 428.505 250.653 428.329C250.478 428.154 250.379 427.916 250.379 427.668V423.445C250.379 423.197 250.478 422.959 250.653 422.784C250.829 422.608 251.067 422.51 251.316 422.51C251.564 422.51 251.803 422.608 251.978 422.784C252.154 422.959 252.253 423.197 252.253 423.445V427.664C252.253 427.787 252.229 427.909 252.183 428.023C252.136 428.137 252.067 428.241 251.98 428.328C251.893 428.415 251.789 428.484 251.675 428.532C251.561 428.579 251.439 428.603 251.316 428.603Z" fill="#32AD67"/>
<path d="M249.165 422.237H244.937C244.688 422.237 244.45 422.138 244.274 421.963C244.099 421.787 244 421.55 244 421.302C244 421.054 244.099 420.816 244.274 420.64C244.45 420.465 244.688 420.366 244.937 420.366H249.165C249.413 420.366 249.651 420.465 249.827 420.64C250.003 420.816 250.101 421.054 250.101 421.302C250.101 421.55 250.003 421.787 249.827 421.963C249.651 422.138 249.413 422.237 249.165 422.237Z" fill="#32AD67"/>
<path d="M272.223 467.879C271.869 467.879 271.529 467.739 271.278 467.489C271.027 467.239 270.887 466.899 270.887 466.546V460.527C270.887 460.173 271.027 459.834 271.278 459.584C271.529 459.334 271.869 459.193 272.223 459.193C272.578 459.193 272.917 459.334 273.168 459.584C273.419 459.834 273.559 460.173 273.559 460.527V466.535C273.561 466.711 273.527 466.886 273.461 467.049C273.394 467.212 273.296 467.36 273.172 467.485C273.048 467.61 272.9 467.709 272.737 467.777C272.574 467.844 272.4 467.879 272.223 467.879Z" fill="#0E1C4C"/>
<path d="M281.309 470.942H275.268C274.914 470.942 274.574 470.801 274.323 470.551C274.072 470.301 273.932 469.962 273.932 469.608C273.932 469.254 274.072 468.915 274.323 468.665C274.574 468.415 274.914 468.274 275.268 468.274H281.309C281.663 468.274 282.003 468.415 282.254 468.665C282.504 468.915 282.645 469.254 282.645 469.608C282.645 469.962 282.504 470.301 282.254 470.551C282.003 470.801 281.663 470.942 281.309 470.942Z" fill="#0E1C4C"/>
<path d="M272.223 480.022C271.869 480.022 271.529 479.882 271.278 479.632C271.027 479.381 270.887 479.042 270.887 478.688V472.67C270.887 472.316 271.027 471.977 271.278 471.727C271.529 471.477 271.869 471.336 272.223 471.336C272.578 471.336 272.918 471.477 273.168 471.727C273.419 471.977 273.56 472.316 273.56 472.67V478.688C273.56 479.042 273.419 479.381 273.168 479.632C272.918 479.882 272.578 480.022 272.223 480.022Z" fill="#0E1C4C"/>
<path d="M269.138 470.942H263.108C262.753 470.942 262.414 470.801 262.163 470.551C261.912 470.301 261.771 469.962 261.771 469.608C261.771 469.254 261.912 468.915 262.163 468.665C262.414 468.415 262.753 468.274 263.108 468.274H269.138C269.492 468.274 269.832 468.415 270.083 468.665C270.334 468.915 270.474 469.254 270.474 469.608C270.474 469.962 270.334 470.301 270.083 470.551C269.832 470.801 269.492 470.942 269.138 470.942Z" fill="#0E1C4C"/>
<path d="M248.284 501.326C249.371 501.326 250.252 500.445 250.252 499.358C250.252 498.271 249.371 497.39 248.284 497.39C247.197 497.39 246.316 498.271 246.316 499.358C246.316 500.445 247.197 501.326 248.284 501.326Z" fill="#5262EE"/>
<path d="M495.938 144.284C495.646 144.284 495.366 144.168 495.16 143.962C494.954 143.757 494.838 143.477 494.838 143.186V138.234C494.838 137.943 494.954 137.664 495.16 137.458C495.366 137.252 495.646 137.136 495.938 137.136C496.229 137.136 496.509 137.252 496.715 137.458C496.921 137.664 497.037 137.943 497.037 138.234V143.177C497.038 143.322 497.011 143.466 496.956 143.6C496.901 143.734 496.821 143.856 496.718 143.959C496.616 144.062 496.494 144.144 496.36 144.199C496.226 144.255 496.083 144.284 495.938 144.284Z" fill="#0E1C4C"/>
<path d="M503.416 146.804H498.445C498.154 146.804 497.874 146.688 497.668 146.483C497.462 146.277 497.346 145.998 497.346 145.707C497.346 145.415 497.462 145.136 497.668 144.93C497.874 144.725 498.154 144.609 498.445 144.609H503.416C503.708 144.609 503.988 144.725 504.194 144.93C504.4 145.136 504.516 145.415 504.516 145.707C504.516 145.998 504.4 146.277 504.194 146.483C503.988 146.688 503.708 146.804 503.416 146.804Z" fill="#0E1C4C"/>
<path d="M495.938 154.276C495.646 154.276 495.366 154.161 495.16 153.955C494.954 153.749 494.838 153.47 494.838 153.179V148.226C494.838 147.935 494.954 147.656 495.16 147.45C495.366 147.244 495.646 147.129 495.938 147.129C496.229 147.129 496.509 147.244 496.715 147.45C496.921 147.656 497.037 147.935 497.037 148.226V153.179C497.037 153.47 496.921 153.749 496.715 153.955C496.509 154.161 496.229 154.276 495.938 154.276Z" fill="#0E1C4C"/>
<path d="M493.4 146.804H488.438C488.146 146.804 487.866 146.688 487.66 146.483C487.454 146.277 487.338 145.998 487.338 145.707C487.338 145.415 487.454 145.136 487.66 144.93C487.866 144.725 488.146 144.609 488.438 144.609H493.4C493.691 144.609 493.971 144.725 494.177 144.93C494.384 145.136 494.499 145.415 494.499 145.707C494.499 145.998 494.384 146.277 494.177 146.483C493.971 146.688 493.691 146.804 493.4 146.804Z" fill="#0E1C4C"/>
<path d="M471.897 117.889C474.05 117.889 475.795 116.147 475.795 113.999C475.795 111.85 474.05 110.109 471.897 110.109C469.745 110.109 468 111.85 468 113.999C468 116.147 469.745 117.889 471.897 117.889Z" fill="#32AD67"/>
<path d="M512.261 91.3315C516.219 91.3315 519.427 88.1233 519.427 84.1657C519.427 80.2082 516.219 77 512.261 77C508.304 77 505.096 80.2082 505.096 84.1657C505.096 88.1233 508.304 91.3315 512.261 91.3315Z" fill="#5262EE"/>
<path opacity="0.07" d="M765.551 66.1812C765.551 65.7875 765.551 65.3777 765.551 65C765.551 53.0652 760.766 41.6193 752.248 33.1802C743.73 24.741 732.177 20 720.131 20C708.085 20 696.532 24.741 688.014 33.1802C679.496 41.6193 674.71 53.0652 674.71 65C668.687 65 662.911 67.3705 658.652 71.5901C654.393 75.8096 652 81.5326 652 87.5C652 93.4673 654.393 99.1903 658.652 103.41C662.911 107.629 668.687 110 674.71 110H758.252C763.64 110.009 768.856 108.119 772.968 104.669C777.08 101.218 779.819 96.4314 780.697 91.164C781.574 85.8965 780.533 80.4916 777.758 75.915C774.984 71.3384 770.657 67.8883 765.551 66.1812Z" fill="#5262EE"/>
<path opacity="0.07" d="M645.692 578C636.89 578 628.448 581.497 622.224 587.721C615.999 593.945 612.502 602.387 612.502 611.19C612.502 611.7 612.502 612.19 612.502 612.72C610.342 610.585 607.688 609.015 604.777 608.148C601.865 607.282 598.785 607.146 595.808 607.752C592.832 608.358 590.05 609.688 587.709 611.624C585.369 613.56 583.54 616.043 582.387 618.853C581.233 621.663 580.789 624.714 581.093 627.736C581.398 630.759 582.443 633.66 584.134 636.183C585.826 638.706 588.113 640.773 590.793 642.203C593.474 643.633 596.465 644.38 599.502 644.38H645.652C654.455 644.385 662.899 640.894 669.127 634.673C675.355 628.452 678.857 620.013 678.863 611.21C678.868 602.407 675.376 593.963 669.156 587.735C662.935 581.507 654.495 578.005 645.692 578Z" fill="#5262EE"/>
<path opacity="0.07" d="M127.236 350.659C122.136 350.658 117.212 352.526 113.396 355.909C111.83 348.632 107.638 342.186 101.621 337.804C95.6032 333.421 88.1822 331.409 80.7751 332.151C73.368 332.893 66.4938 336.338 61.4656 341.827C56.4373 347.317 53.6074 354.466 53.5163 361.909C51.3369 360.525 48.8647 359.668 46.2961 359.406C43.7275 359.144 41.1332 359.484 38.7191 360.4C36.305 361.315 34.1376 362.781 32.389 364.681C30.6404 366.581 29.3588 368.862 28.6458 371.343C27.9329 373.825 27.8082 376.438 28.2818 378.977C28.7554 381.515 29.8142 383.908 31.3741 385.965C32.9341 388.022 34.9521 389.688 37.2682 390.829C39.5842 391.97 42.1344 392.556 44.7163 392.54H127.276C130.081 392.623 132.873 392.143 135.489 391.127C138.104 390.112 140.489 388.581 142.501 386.626C144.513 384.671 146.113 382.332 147.204 379.747C148.295 377.162 148.856 374.385 148.853 371.579C148.851 368.773 148.284 365.997 147.188 363.414C146.092 360.831 144.488 358.495 142.472 356.544C140.456 354.593 138.069 353.067 135.451 352.056C132.834 351.045 130.041 350.57 127.236 350.659Z" fill="#5262EE"/>
</g>
<defs>
<clipPath id="clip0_1_5103">
<rect width="810" height="644" fill="white"/>
</clipPath>
</defs>
</svg>
