<svg width="343" height="107" viewBox="0 0 343 107" fill="none" xmlns="http://www.w3.org/2000/svg">
<g filter="url(#filter0_d)">
<path d="M5.891 82L18.7925 42.35L19.86 36.25L26.4785 35.64L41.6675 82H35.5675L31.0535 68.275H15.956L11.503 82H5.891ZM23.4895 40.52L22.3915 48.45L17.4505 63.7H29.559L24.5875 48.45L23.4895 40.52ZM55.8738 47.0165V55.0075H59.2288C60.5505 55.0075 61.8315 54.8652 63.0718 54.5805C64.3122 54.2755 65.4102 53.8078 66.3658 53.1775C67.3418 52.5268 68.1247 51.6932 68.7143 50.6765C69.304 49.6598 69.5988 48.4297 69.5988 46.986C69.5988 45.644 69.3142 44.5257 68.7448 43.631C68.1755 42.7363 67.4232 42.0247 66.4878 41.496C65.5728 40.9673 64.5358 40.6013 63.3768 40.398C62.2178 40.1743 61.0588 40.0625 59.8998 40.0625C59.5542 40.0625 59.178 40.0727 58.7713 40.093C58.3647 40.1133 57.9478 40.154 57.5208 40.215C57.1142 40.2557 56.7075 40.3065 56.3008 40.3675C55.9145 40.4285 55.5688 40.4895 55.2638 40.5505L55.8738 47.0165ZM49.4688 82V42.655L48.5538 36.555C49.1638 36.4737 49.8653 36.3923 50.6583 36.311C51.4717 36.2297 52.3053 36.1687 53.1593 36.128C54.0133 36.067 54.8572 36.0263 55.6908 36.006C56.5245 35.9653 57.2667 35.945 57.9173 35.945C60.1743 35.945 62.35 36.0975 64.4443 36.4025C66.559 36.6872 68.4297 37.2158 70.0563 37.9885C71.683 38.7612 72.9843 39.8287 73.9603 41.191C74.9363 42.533 75.4243 44.2512 75.4243 46.3455C75.4243 48.5618 74.8855 50.4732 73.8078 52.0795C72.7505 53.6858 71.3475 54.916 69.5988 55.77L64.9018 57.112L69.3853 57.539C70.6257 57.905 71.7948 58.3828 72.8928 58.9725C74.0112 59.5418 74.9872 60.2433 75.8208 61.077C76.6545 61.9107 77.3052 62.8968 77.7728 64.0355C78.2608 65.1742 78.5048 66.4857 78.5048 67.97C78.5048 69.6983 78.271 71.2437 77.8033 72.606C77.3357 73.9683 76.7053 75.168 75.9123 76.205C75.1193 77.242 74.184 78.1367 73.1063 78.889C72.0287 79.621 70.8697 80.2208 69.6293 80.6885C68.4093 81.1358 67.1385 81.4713 65.8168 81.695C64.5155 81.8983 63.2345 82 61.9738 82H49.4688ZM55.8738 77.12H60.1438C62.1568 77.12 63.9258 76.9777 65.4508 76.693C66.9758 76.388 68.2568 75.9 69.2938 75.229C70.3308 74.5377 71.1035 73.6328 71.6118 72.5145C72.1405 71.3758 72.4048 69.9627 72.4048 68.275C72.4048 66.75 72.1405 65.4487 71.6118 64.371C71.0832 63.2933 70.3308 62.4088 69.3548 61.7175C68.3992 61.0262 67.2402 60.528 65.8778 60.223C64.5155 59.8977 63.0108 59.735 61.3638 59.735H55.8738V77.12ZM95.5477 63.273V82H89.1427V42.655L88.0752 36.555C88.7462 36.4737 89.5493 36.3923 90.4847 36.311C91.4403 36.2297 92.4265 36.1585 93.4432 36.0975C94.4802 36.0365 95.5172 35.9857 96.5542 35.945C97.5912 35.9043 98.5468 35.884 99.4212 35.884C101.983 35.884 104.321 36.1585 106.436 36.7075C108.551 37.2362 110.36 38.0292 111.865 39.0865C113.37 40.1438 114.539 41.4655 115.373 43.0515C116.206 44.6172 116.623 46.4268 116.623 48.4805C116.623 50.6155 116.288 52.4963 115.617 54.123C114.966 55.7497 114.041 57.1425 112.841 58.3015C111.641 59.4402 110.208 60.3755 108.541 61.1075C106.894 61.8192 105.084 62.3478 103.112 62.6935L107.443 63.9135L120.954 82H114.153L100.641 63.8525C100.417 63.5678 100.163 63.4052 99.8787 63.3645C99.594 63.3035 99.3703 63.273 99.2077 63.273H95.5477ZM95.5477 47.0165V58.6675H100.062C101.912 58.6675 103.518 58.4133 104.881 57.905C106.243 57.3763 107.371 56.6748 108.266 55.8005C109.161 54.9058 109.832 53.879 110.279 52.72C110.726 51.5407 110.95 50.2902 110.95 48.9685C110.95 47.2402 110.625 45.8067 109.974 44.668C109.323 43.509 108.48 42.594 107.443 41.923C106.406 41.2317 105.247 40.7538 103.966 40.4895C102.685 40.2048 101.424 40.0625 100.184 40.0625C99.7567 40.0625 99.3093 40.0727 98.8417 40.093C98.374 40.093 97.9063 40.1032 97.4387 40.1235C96.971 40.1438 96.5135 40.1845 96.0662 40.2455C95.6392 40.2862 95.263 40.337 94.9377 40.398L95.5477 47.0165ZM127.608 59.8398C127.608 56.3053 128.025 53.1878 128.859 50.4873C129.733 47.7471 130.924 45.4437 132.434 43.5771C133.982 41.6709 135.789 40.2214 137.854 39.2285C139.959 38.196 142.243 37.6003 144.705 37.4414V43.3984C143.355 43.5573 142.084 43.9743 140.893 44.6494C139.701 45.3245 138.669 46.3174 137.795 47.6279C136.921 48.9385 136.226 50.6064 135.71 52.6318C135.194 54.6572 134.916 57.0599 134.876 59.8398C134.916 62.6595 135.194 65.082 135.71 67.1074C136.226 69.0931 136.921 70.7611 137.795 72.1113C138.708 73.4616 139.761 74.4941 140.952 75.209C142.144 75.8841 143.395 76.2812 144.705 76.4004V82.2979C142.283 82.139 140.019 81.5632 137.914 80.5703C135.809 79.5378 133.982 78.0882 132.434 76.2217C130.924 74.3154 129.733 71.9922 128.859 69.252C128.025 66.5117 127.608 63.3743 127.608 59.8398ZM147.088 37.4414C149.51 37.5605 151.754 38.1364 153.819 39.1689C155.924 40.2015 157.731 41.6709 159.24 43.5771C160.789 45.4437 162 47.7471 162.874 50.4873C163.748 53.1878 164.185 56.3053 164.185 59.8398C164.185 63.3743 163.748 66.5117 162.874 69.252C162 71.9922 160.789 74.3154 159.24 76.2217C157.731 78.0882 155.944 79.5378 153.879 80.5703C151.814 81.5632 149.55 82.139 147.088 82.2979V76.4004C148.438 76.2415 149.709 75.8245 150.9 75.1494C152.092 74.4346 153.124 73.4219 153.998 72.1113C154.872 70.7611 155.567 69.0931 156.083 67.1074C156.599 65.082 156.877 62.6595 156.917 59.8398C156.877 57.0202 156.599 54.6175 156.083 52.6318C155.567 50.6064 154.852 48.9385 153.938 47.6279C153.065 46.2777 152.032 45.265 150.841 44.5898C149.649 43.875 148.398 43.458 147.088 43.3389V37.4414ZM180.924 59.125C180.924 62.1829 181.122 64.7842 181.52 66.9287C181.917 69.0335 182.493 70.7809 183.247 72.1709C184.002 73.5212 184.895 74.5339 185.928 75.209C187 75.8841 188.191 76.2812 189.502 76.4004V82.2979C187.079 82.139 184.875 81.5632 182.89 80.5703C180.944 79.5378 179.296 78.0882 177.945 76.2217C176.595 74.3154 175.543 71.9922 174.788 69.252C174.034 66.5117 173.656 63.3743 173.656 59.8398V38.0967H180.924V59.125ZM207.79 38.0967V59.8398C207.79 63.3743 207.413 66.5117 206.658 69.252C205.904 71.9922 204.831 74.3154 203.441 76.2217C202.091 78.0882 200.443 79.5378 198.497 80.5703C196.551 81.5632 194.367 82.139 191.944 82.2979V76.4004C193.255 76.2415 194.426 75.8444 195.459 75.209C196.531 74.5339 197.445 73.5212 198.199 72.1709C198.954 70.8206 199.53 69.0931 199.927 66.9883C200.364 64.8438 200.582 62.2227 200.582 59.125V38.0967H207.79ZM227.772 82V41.13H215.115V36.25H246.682V41.13H234.177V82H227.772ZM281.123 77.12L280.513 82H254.588L255.046 75.9V42.655L254.131 36.25H280.056V41.13H260.841L261.451 46.925V55.0075H277.921V59.43H261.451V71.63L261.146 77.12H281.123ZM298.027 63.273V82H291.622V42.655L290.555 36.555C291.226 36.4737 292.029 36.3923 292.964 36.311C293.92 36.2297 294.906 36.1585 295.923 36.0975C296.96 36.0365 297.997 35.9857 299.034 35.945C300.071 35.9043 301.026 35.884 301.901 35.884C304.463 35.884 306.801 36.1585 308.916 36.7075C311.03 37.2362 312.84 38.0292 314.345 39.0865C315.849 40.1438 317.018 41.4655 317.852 43.0515C318.686 44.6172 319.103 46.4268 319.103 48.4805C319.103 50.6155 318.767 52.4963 318.096 54.123C317.445 55.7497 316.52 57.1425 315.321 58.3015C314.121 59.4402 312.687 60.3755 311.02 61.1075C309.373 61.8192 307.563 62.3478 305.591 62.6935L309.922 63.9135L323.434 82H316.632L303.121 63.8525C302.897 63.5678 302.643 63.4052 302.358 63.3645C302.073 63.3035 301.85 63.273 301.687 63.273H298.027ZM298.027 47.0165V58.6675H302.541C304.391 58.6675 305.998 58.4133 307.36 57.905C308.722 57.3763 309.851 56.6748 310.746 55.8005C311.64 54.9058 312.311 53.879 312.759 52.72C313.206 51.5407 313.43 50.2902 313.43 48.9685C313.43 47.2402 313.104 45.8067 312.454 44.668C311.803 43.509 310.959 42.594 309.922 41.923C308.885 41.2317 307.726 40.7538 306.445 40.4895C305.164 40.2048 303.903 40.0625 302.663 40.0625C302.236 40.0625 301.789 40.0727 301.321 40.093C300.853 40.093 300.386 40.1032 299.918 40.1235C299.45 40.1438 298.993 40.1845 298.546 40.2455C298.119 40.2862 297.742 40.337 297.417 40.398L298.027 47.0165Z" fill="white"/>
</g>
<defs>
<filter id="filter0_d" x="-4" y="0" width="351" height="115" filterUnits="userSpaceOnUse" color-interpolation-filters="sRGB">
<feFlood flood-opacity="0" result="BackgroundImageFix"/>
<feColorMatrix in="SourceAlpha" type="matrix" values="0 0 0 0 0 0 0 0 0 0 0 0 0 0 0 0 0 0 127 0"/>
<feOffset dy="4"/>
<feGaussianBlur stdDeviation="2"/>
<feColorMatrix type="matrix" values="0 0 0 0 0 0 0 0 0 0 0 0 0 0 0 0 0 0 0.25 0"/>
<feBlend mode="normal" in2="BackgroundImageFix" result="effect1_dropShadow"/>
<feBlend mode="normal" in="SourceGraphic" in2="effect1_dropShadow" result="shape"/>
</filter>
</defs>
</svg>
